<svg width="1736" height="450" viewBox="0 0 1736 450" fill="none" xmlns="http://www.w3.org/2000/svg">
<rect x="1" y="1" width="637.578" height="448" rx="98.8437" fill="#FE0000" stroke="black" stroke-width="2"/>
<path d="M327.585 411.258C323.588 416.253 315.99 416.253 311.994 411.258L159.68 220.924C154.449 214.387 159.103 204.701 167.476 204.701L472.102 204.701C480.475 204.701 485.129 214.387 479.898 220.924L327.585 411.258Z" fill="white"/>
<path d="M248.836 117.984C248.836 112.47 253.306 108 258.82 108H381.614C387.129 108 391.599 112.47 391.599 117.984V208H248.836V117.984Z" fill="white"/>
<rect x="378.75" y="89.499" width="37.5" height="99.9341" rx="9.98438" transform="rotate(-90 378.75 89.499)" fill="white"/>
<rect x="409.73" y="20.999" width="37.4753" height="100" rx="9.98438" fill="white"/>
<g filter="url(#filter0_d)">
<path d="M816.503 207.857L875.786 93.8164H909.795L831.48 236.25V320.961H801.527V236.25L723.212 93.8164H757.533L816.503 207.857ZM1098.87 118.465H1025.86V320.961H996.066V118.465H923.211V93.8164H1098.87V118.465ZM1151.92 236.25H1075.79V212.693H1151.92V236.25ZM1184.68 320.961V93.8164H1248.8C1268.56 93.8164 1286.03 98.1846 1301.21 106.921C1316.4 115.657 1328.1 128.086 1336.31 144.206C1344.64 160.327 1348.85 178.84 1348.95 199.744V214.253C1348.95 235.678 1344.79 254.45 1336.47 270.571C1328.25 286.692 1316.45 299.068 1301.06 307.7C1285.77 316.333 1267.93 320.753 1247.55 320.961H1184.68ZM1214.63 118.465V296.468H1246.14C1269.23 296.468 1287.17 289.292 1299.97 274.939C1312.86 260.587 1319.31 240.15 1319.31 213.629V200.368C1319.31 174.575 1313.23 154.555 1301.06 140.306C1288.99 125.954 1271.83 118.673 1249.58 118.465H1214.63ZM1424.46 296.468H1532.1V320.961H1394.35V93.8164H1424.46V296.468ZM1596.22 232.038V320.961H1566.27V93.8164H1650.04C1674.9 93.8164 1694.35 100.161 1708.39 112.849C1722.53 125.538 1729.61 142.334 1729.61 163.239C1729.61 185.288 1722.69 202.292 1708.86 214.253C1695.13 226.109 1675.42 232.038 1649.73 232.038H1596.22ZM1596.22 207.545H1650.04C1666.06 207.545 1678.33 203.801 1686.86 196.312C1695.39 188.72 1699.65 177.8 1699.65 163.551C1699.65 150.031 1695.39 139.214 1686.86 131.102C1678.33 122.99 1666.63 118.777 1651.76 118.465H1596.22V207.545Z" fill="#FE0000"/>
<path d="M816.503 207.857L814.73 208.774L816.499 212.195L818.275 208.778L816.503 207.857ZM875.786 93.8164V91.8195H874.573L874.014 92.8954L875.786 93.8164ZM909.795 93.8164L911.545 94.7785L913.172 91.8195H909.795V93.8164ZM831.48 236.25L829.73 235.288L829.483 235.737V236.25H831.48ZM831.48 320.961V322.958H833.477V320.961H831.48ZM801.527 320.961H799.53V322.958H801.527V320.961ZM801.527 236.25H803.524V235.737L803.277 235.288L801.527 236.25ZM723.212 93.8164V91.8195H719.835L721.462 94.7785L723.212 93.8164ZM757.533 93.8164L759.307 92.8992L758.749 91.8195H757.533V93.8164ZM818.275 208.778L877.557 94.7374L874.014 92.8954L814.732 206.936L818.275 208.778ZM875.786 95.8133H909.795V91.8195H875.786V95.8133ZM908.045 92.8543L829.73 235.288L833.23 237.212L911.545 94.7785L908.045 92.8543ZM829.483 236.25V320.961H833.477V236.25H829.483ZM831.48 318.964H801.527V322.958H831.48V318.964ZM803.524 320.961V236.25H799.53V320.961H803.524ZM803.277 235.288L724.962 92.8543L721.462 94.7785L799.777 237.212L803.277 235.288ZM723.212 95.8133H757.533V91.8195H723.212V95.8133ZM755.759 94.7336L814.73 208.774L818.277 206.939L759.307 92.8992L755.759 94.7336ZM1098.87 118.465V120.462H1100.87V118.465H1098.87ZM1025.86 118.465V116.468H1023.87V118.465H1025.86ZM1025.86 320.961V322.958H1027.86V320.961H1025.86ZM996.066 320.961H994.069V322.958H996.066V320.961ZM996.066 118.465H998.063V116.468H996.066V118.465ZM923.211 118.465H921.215V120.462H923.211V118.465ZM923.211 93.8164V91.8195H921.215V93.8164H923.211ZM1098.87 93.8164H1100.87V91.8195H1098.87V93.8164ZM1098.87 116.468H1025.86V120.462H1098.87V116.468ZM1023.87 118.465V320.961H1027.86V118.465H1023.87ZM1025.86 318.964H996.066V322.958H1025.86V318.964ZM998.063 320.961V118.465H994.069V320.961H998.063ZM996.066 116.468H923.211V120.462H996.066V116.468ZM925.208 118.465V93.8164H921.215V118.465H925.208ZM923.211 95.8133H1098.87V91.8195H923.211V95.8133ZM1096.88 93.8164V118.465H1100.87V93.8164H1096.88ZM1151.92 236.25V238.247H1153.91V236.25H1151.92ZM1075.79 236.25H1073.79V238.247H1075.79V236.25ZM1075.79 212.693V210.696H1073.79V212.693H1075.79ZM1151.92 212.693H1153.91V210.696H1151.92V212.693ZM1151.92 234.253H1075.79V238.247H1151.92V234.253ZM1077.78 236.25V212.693H1073.79V236.25H1077.78ZM1075.79 214.69H1151.92V210.696H1075.79V214.69ZM1149.92 212.693V236.25H1153.91V212.693H1149.92ZM1184.68 320.961H1182.68V322.958H1184.68V320.961ZM1184.68 93.8164V91.8195H1182.68V93.8164H1184.68ZM1336.31 144.206L1334.54 145.113L1334.54 145.122L1336.31 144.206ZM1348.95 199.744L1350.95 199.744L1350.95 199.734L1348.95 199.744ZM1336.47 270.571L1334.7 269.655L1334.69 269.664L1336.47 270.571ZM1301.06 307.7L1300.08 305.959L1300.08 305.962L1301.06 307.7ZM1247.55 320.961V322.958H1247.56L1247.57 322.958L1247.55 320.961ZM1214.63 118.465V116.468H1212.63V118.465H1214.63ZM1214.63 296.468H1212.63V298.465H1214.63V296.468ZM1299.97 274.939L1298.48 273.605L1298.47 273.611L1299.97 274.939ZM1301.06 140.306L1299.53 141.591L1299.53 141.597L1299.54 141.603L1301.06 140.306ZM1249.58 118.465L1249.59 116.469L1249.59 116.468H1249.58V118.465ZM1186.67 320.961V93.8164H1182.68V320.961H1186.67ZM1184.68 95.8133H1248.8V91.8195H1184.68V95.8133ZM1248.8 95.8133C1268.25 95.8133 1285.37 100.111 1300.22 108.652L1302.21 105.19C1286.68 96.258 1268.86 91.8195 1248.8 91.8195V95.8133ZM1300.22 108.652C1315.06 117.188 1326.49 129.325 1334.54 145.113L1338.09 143.3C1329.71 126.846 1317.74 114.126 1302.21 105.19L1300.22 108.652ZM1334.54 145.122C1342.7 160.923 1346.85 179.117 1346.95 199.754L1350.95 199.734C1350.84 178.563 1346.57 159.731 1338.09 143.29L1334.54 145.122ZM1346.95 199.744V214.253H1350.95V199.744H1346.95ZM1346.95 214.253C1346.95 235.417 1342.85 253.865 1334.7 269.655L1338.25 271.487C1346.74 255.036 1350.95 235.939 1350.95 214.253H1346.95ZM1334.69 269.664C1326.65 285.443 1315.12 297.524 1300.08 305.959L1302.03 309.442C1317.78 300.612 1329.86 287.94 1338.25 271.478L1334.69 269.664ZM1300.08 305.962C1285.13 314.403 1267.63 318.759 1247.53 318.964L1247.57 322.958C1268.24 322.747 1286.41 318.262 1302.04 309.439L1300.08 305.962ZM1247.55 318.964H1184.68V322.958H1247.55V318.964ZM1212.63 118.465V296.468H1216.63V118.465H1212.63ZM1214.63 298.465H1246.14V294.471H1214.63V298.465ZM1246.14 298.465C1269.68 298.465 1288.21 291.13 1301.46 276.268L1298.47 273.611C1286.14 287.453 1268.79 294.471 1246.14 294.471V298.465ZM1301.45 276.274C1314.78 261.437 1321.31 240.457 1321.31 213.629H1317.31C1317.31 239.843 1310.94 259.736 1298.48 273.605L1301.45 276.274ZM1321.31 213.629V200.368H1317.31V213.629H1321.31ZM1321.31 200.368C1321.31 174.279 1315.15 153.735 1302.58 139.009L1299.54 141.603C1311.3 155.374 1317.31 174.872 1317.31 200.368H1321.31ZM1302.59 139.021C1290.08 124.138 1272.31 116.681 1249.59 116.469L1249.56 120.462C1271.35 120.666 1287.91 127.769 1299.53 141.591L1302.59 139.021ZM1249.58 116.468H1214.63V120.462H1249.58V116.468ZM1424.46 296.468H1422.46V298.465H1424.46V296.468ZM1532.1 296.468H1534.1V294.471H1532.1V296.468ZM1532.1 320.961V322.958H1534.1V320.961H1532.1ZM1394.35 320.961H1392.35V322.958H1394.35V320.961ZM1394.35 93.8164V91.8195H1392.35V93.8164H1394.35ZM1424.46 93.8164H1426.46V91.8195H1424.46V93.8164ZM1424.46 298.465H1532.1V294.471H1424.46V298.465ZM1530.11 296.468V320.961H1534.1V296.468H1530.11ZM1532.1 318.964H1394.35V322.958H1532.1V318.964ZM1396.35 320.961V93.8164H1392.35V320.961H1396.35ZM1394.35 95.8133H1424.46V91.8195H1394.35V95.8133ZM1422.46 93.8164V296.468H1426.46V93.8164H1422.46ZM1596.22 232.038V230.041H1594.22V232.038H1596.22ZM1596.22 320.961V322.958H1598.22V320.961H1596.22ZM1566.27 320.961H1564.27V322.958H1566.27V320.961ZM1566.27 93.8164V91.8195H1564.27V93.8164H1566.27ZM1708.39 112.849L1707.05 114.331L1707.06 114.336L1708.39 112.849ZM1708.86 214.253L1710.16 215.764L1710.16 215.763L1708.86 214.253ZM1596.22 207.545H1594.22V209.542H1596.22V207.545ZM1686.86 196.312L1688.18 197.813L1688.19 197.804L1686.86 196.312ZM1651.76 118.465L1651.8 116.469L1651.78 116.468H1651.76V118.465ZM1596.22 118.465V116.468H1594.22V118.465H1596.22ZM1594.22 232.038V320.961H1598.22V232.038H1594.22ZM1596.22 318.964H1566.27V322.958H1596.22V318.964ZM1568.26 320.961V93.8164H1564.27V320.961H1568.26ZM1566.27 95.8133H1650.04V91.8195H1566.27V95.8133ZM1650.04 95.8133C1674.56 95.8133 1693.48 102.067 1707.05 114.331L1709.73 111.368C1695.22 98.2545 1675.24 91.8195 1650.04 91.8195V95.8133ZM1707.06 114.336C1720.73 126.605 1727.61 142.838 1727.61 163.239H1731.6C1731.6 141.831 1724.33 124.47 1709.72 111.363L1707.06 114.336ZM1727.61 163.239C1727.61 184.839 1720.85 201.239 1707.55 212.742L1710.16 215.763C1724.52 203.346 1731.6 185.737 1731.6 163.239H1727.61ZM1707.55 212.742C1694.31 224.176 1675.14 230.041 1649.73 230.041V234.034C1675.7 234.034 1695.95 228.042 1710.16 215.764L1707.55 212.742ZM1649.73 230.041H1596.22V234.034H1649.73V230.041ZM1596.22 209.542H1650.04V205.548H1596.22V209.542ZM1650.04 209.542C1666.35 209.542 1679.16 205.731 1688.18 197.813L1685.54 194.812C1677.5 201.87 1665.77 205.548 1650.04 205.548V209.542ZM1688.19 197.804C1697.24 189.742 1701.65 178.217 1701.65 163.551H1697.66C1697.66 177.382 1693.53 187.698 1685.53 194.821L1688.19 197.804ZM1701.65 163.551C1701.65 149.573 1697.22 138.201 1688.24 129.655L1685.48 132.549C1693.56 140.227 1697.66 150.489 1697.66 163.551H1701.65ZM1688.24 129.655C1679.26 121.116 1667.03 116.788 1651.8 116.469L1651.72 120.462C1666.23 120.766 1677.4 124.863 1685.48 132.549L1688.24 129.655ZM1651.76 116.468H1596.22V120.462H1651.76V116.468ZM1594.22 118.465V207.545H1598.22V118.465H1594.22Z" fill="black"/>
</g>
<defs>
<filter id="filter0_d" x="715.841" y="91.8193" width="1019.75" height="239.126" filterUnits="userSpaceOnUse" color-interpolation-filters="sRGB">
<feFlood flood-opacity="0" result="BackgroundImageFix"/>
<feColorMatrix in="SourceAlpha" type="matrix" values="0 0 0 0 0 0 0 0 0 0 0 0 0 0 0 0 0 0 127 0" result="hardAlpha"/>
<feOffset dy="3.99375"/>
<feGaussianBlur stdDeviation="1.99687"/>
<feComposite in2="hardAlpha" operator="out"/>
<feColorMatrix type="matrix" values="0 0 0 0 0 0 0 0 0 0 0 0 0 0 0 0 0 0 0.25 0"/>
<feBlend mode="normal" in2="BackgroundImageFix" result="effect1_dropShadow"/>
<feBlend mode="normal" in="SourceGraphic" in2="effect1_dropShadow" result="shape"/>
</filter>
</defs>
</svg>
