<svg xmlns="http://www.w3.org/2000/svg" width="746" height="176" viewBox="0 0 746 176">
  <defs>
    <style>
      .cls-1, .cls-4 {
        fill: red;
      }

      .cls-1, .cls-2, .cls-3, .cls-4 {
        fill-rule: evenodd;
      }

      .cls-2 {
        fill: #666;
      }

      .cls-3 {
        fill: #fff;
      }

      .cls-3, .cls-4 {
        stroke: #282828;
        stroke-linejoin: round;
        stroke-width: 1px;
      }
    </style>
  </defs>
  <path class="cls-1" d="M0.426,154.812L7.1,167.281V173h4.9v-5.719l6.678-12.469H13.179L9.627,162.2H9.485l-3.552-7.389H0.426Zm20.49,3.979h5.471V173h4.866V158.791h5.47v-3.979H20.916v3.979Zm25.82,5.115H38.211V167.6h8.525v-3.695ZM56.572,173c5.541,0,9.058-3.41,9.058-9.094s-3.517-9.094-9.129-9.094H49.574V173h7Zm-2.06-4.192V159h1.741c2.842,0,4.4,1.1,4.4,4.9s-1.563,4.9-4.263,4.9H54.512ZM67.9,173H80.189v-3.979H72.835V154.812H67.9V173Zm14.275,0h4.938v-5.4h2.735c4.147,0,6.927-2.443,6.927-6.359,0-3.872-2.709-6.43-6.749-6.43h-7.85V173Zm4.938-9.236v-5.009h1.741c1.732,0,2.771.924,2.771,2.487a2.452,2.452,0,0,1-2.771,2.522H87.111Z"/>
  <path class="cls-2" d="M113.281,173l2.691-5.151h7.353L124.293,173H126.6l-3.659-18.188H120.67L110.972,173h2.309Zm3.712-7.1,4.281-8.206h0.142l1.545,8.206h-5.968Zm27.54-6.537h-3.072l0.231-1.385a2.139,2.139,0,0,1,2.309-2.06,2.987,2.987,0,0,1,1.136.213l0.888-1.812a4.324,4.324,0,0,0-1.918-.355,4.271,4.271,0,0,0-4.405,3.517l-0.31,1.882H137.18l-0.284,1.776h2.194L137.109,173h2.1l1.963-11.865h3.081Zm5.788,13.925a6.444,6.444,0,0,0,6-3.445l-1.918-.569a4.022,4.022,0,0,1-3.765,2.131c-2.629,0-4.032-1.172-3.526-4.511h9.92l0.142-.888c0.861-5.08-1.874-6.82-4.725-6.82-3.685,0-6.633,2.913-7.317,7.1C144.433,170.478,146.387,173.284,150.321,173.284Zm-2.913-8.206a5.27,5.27,0,0,1,4.725-4.014c2.282,0,3.454,1.706,3.055,4.014h-7.78Zm15.8,8.242a5.173,5.173,0,0,0,4.405-2.167h0.106L167.4,173h2.1l1.492-8.987c0.71-4.334-2.487-4.831-4.228-4.831a6.658,6.658,0,0,0-6,3.2l1.847,0.71a4.673,4.673,0,0,1,3.979-2.06c1.918,0,2.628,1.03,2.344,2.771v0.071c-0.177.994-1.208,0.923-3.73,1.243-2.593.32-5.435,0.888-5.967,4.014C158.806,171.792,160.618,173.32,163.211,173.32Zm0.6-1.883c-1.67,0-2.735-.746-2.487-2.2,0.249-1.6,1.812-2.1,3.482-2.309,0.888-.107,3.3-0.356,3.729-0.782l-0.319,1.918A4.289,4.289,0,0,1,163.815,171.437Zm17.721-12.078h-2.921l0.541-3.268h-2.1l-0.541,3.268h-2.052l-0.284,1.776h2.043l-1.4,8.526a2.88,2.88,0,0,0,3.091,3.517,5.026,5.026,0,0,0,1.634-.249l-0.142-1.883a4.017,4.017,0,0,1-.924.107c-0.923,0-1.776-.284-1.492-2.06l1.324-7.958h2.939Zm10.405,8.064a4.329,4.329,0,0,1-4.12,3.73c-1.741,0-2.771-1.279-2.451-3.268l1.421-8.526h-2.1l-1.457,8.668c-0.568,3.481,1,5.151,3.553,5.151a5.185,5.185,0,0,0,4.475-2.487h0.143L191.018,173h2.1l2.273-13.641h-2.1Zm5,5.577h2.1l1.421-8.632a3.953,3.953,0,0,1,3.979-3.2,2.457,2.457,0,0,1,1.172.213l1-1.74a2.365,2.365,0,0,0-1.634-.5,4.5,4.5,0,0,0-3.943,2.274h-0.143l0.356-2.061h-2.025Zm14.846,0.284a6.446,6.446,0,0,0,6-3.445l-1.918-.569a4.023,4.023,0,0,1-3.766,2.131c-2.628,0-4.031-1.172-3.525-4.511h9.92l0.142-.888c0.861-5.08-1.874-6.82-4.725-6.82-3.685,0-6.634,2.913-7.317,7.1C205.9,170.478,207.857,173.284,211.791,173.284Zm-2.913-8.206a5.268,5.268,0,0,1,4.724-4.014c2.283,0,3.455,1.706,3.055,4.014h-7.779Zm21.1-.852h-7.957l-0.32,1.954h7.957ZM232.208,173h2.1l1.42-8.632a3.959,3.959,0,0,1,3.979-3.2,6.363,6.363,0,0,1,1.279.142l0.355-2.131a10.544,10.544,0,0,0-1.1-.036,4.538,4.538,0,0,0-3.943,2.274h-0.142l0.355-2.061h-2.025Zm9.339,0h2.1l2.274-13.641h-2.1Zm3.961-15.95a1.422,1.422,0,1,0-1.492-1.42A1.464,1.464,0,0,0,245.508,157.05Zm7.476,16.234a6.244,6.244,0,0,0,6.074-4.263h-2.1a3.9,3.9,0,0,1-3.659,2.38c-2.5,0-3.774-2.06-3.232-5.221,0.488-3.091,2.477-5.116,4.937-5.116a2.628,2.628,0,0,1,2.878,2.38h2.1c0.062-2.557-1.821-4.262-4.689-4.262-3.7,0-6.652,2.913-7.318,7.069C247.291,170.336,249.138,173.284,252.984,173.284Zm11.9-8.49a4.229,4.229,0,0,1,4.228-3.73c1.953,0,2.948,1.244,2.593,3.411L270.279,173h2.1l1.456-8.667c0.568-3.517-1.03-5.151-3.8-5.151a4.741,4.741,0,0,0-4.4,2.309h-0.177l1.1-6.679h-2.1L261.434,173h2.095Zm23.865,8.49a6.244,6.244,0,0,0,6.074-4.263h-2.1a3.894,3.894,0,0,1-3.659,2.38c-2.5,0-3.774-2.06-3.232-5.221,0.488-3.091,2.478-5.116,4.937-5.116a2.628,2.628,0,0,1,2.878,2.38h2.1c0.062-2.557-1.821-4.262-4.689-4.262-3.7,0-6.652,2.913-7.318,7.069C283.051,170.336,284.9,173.284,288.744,173.284Zm14.1,0c3.623,0,6.5-2.735,7.175-6.891,0.7-4.334-1.349-7.211-5.115-7.211-3.623,0-6.5,2.735-7.175,6.927C297.034,170.407,299.076,173.284,302.842,173.284Zm0.035-1.883c-2.735,0-3.552-2.344-3.126-5.008,0.453-2.806,2.238-5.329,5.116-5.329,2.735,0,3.552,2.38,3.126,5.045C307.54,168.924,305.755,171.4,302.877,171.4Zm9.231,1.6h2.1l1.421-8.525a3.978,3.978,0,0,1,3.659-3.411,2.092,2.092,0,0,1,2.273,2.594L319.994,173h2.132l1.492-8.881a3.45,3.45,0,0,1,3.516-3.055c1.492,0,2.629.782,2.309,2.807L327.916,173h2.1l1.527-9.129c0.533-3.2-.959-4.689-3.374-4.689a5.191,5.191,0,0,0-4.476,2.309h-0.142a3.076,3.076,0,0,0-3.268-2.309,4.487,4.487,0,0,0-4.05,2.309h-0.178l0.356-2.132h-2.025Zm21.734,0h2.1l1.421-8.525a3.978,3.978,0,0,1,3.659-3.411,2.093,2.093,0,0,1,2.274,2.594L341.728,173h2.131l1.492-8.881a3.45,3.45,0,0,1,3.517-3.055c1.491,0,2.628.782,2.309,2.807L349.649,173h2.1l1.527-9.129c0.533-3.2-.959-4.689-3.374-4.689a5.191,5.191,0,0,0-4.476,2.309H345.28a3.075,3.075,0,0,0-3.268-2.309,4.487,4.487,0,0,0-4.05,2.309h-0.177l0.355-2.132h-2.025Zm25.711,0.32a5.173,5.173,0,0,0,4.405-2.167h0.107L363.745,173h2.1l1.492-8.987c0.71-4.334-2.487-4.831-4.228-4.831a6.659,6.659,0,0,0-6,3.2l1.847,0.71a4.674,4.674,0,0,1,3.979-2.06c1.918,0,2.628,1.03,2.344,2.771v0.071c-0.177.994-1.207,0.923-3.73,1.243-2.593.32-5.435,0.888-5.967,4.014C355.148,171.792,356.96,173.32,359.553,173.32Zm0.6-1.883c-1.67,0-2.735-.746-2.487-2.2,0.249-1.6,1.812-2.1,3.482-2.309,0.888-.107,3.3-0.356,3.73-0.782l-0.32,1.918A4.289,4.289,0,0,1,360.157,171.437Zm12.961-6.643a4.154,4.154,0,0,1,4.121-3.73c1.954,0,2.913,1.279,2.558,3.411L378.376,173h2.1l1.457-8.667c0.568-3.482-1.03-5.151-3.765-5.151a4.869,4.869,0,0,0-4.37,2.309h-0.177l0.355-2.132h-2.025L369.673,173h2.095Zm16.336,8.49a5.166,5.166,0,0,0,4.369-2.38h0.249l-0.355,2.1h2.024l3.02-18.188h-2.1l-1.119,6.714h-0.178a3.382,3.382,0,0,0-3.552-2.344c-3.446,0-6.278,2.735-7,7.033C384.108,170.549,386.035,173.284,389.454,173.284Zm0.515-1.883c-2.629,0-3.526-2.308-3.037-5.221,0.47-2.878,2.087-5.116,4.742-5.116,2.567,0,3.65,2.061,3.144,5.116C394.3,169.27,392.491,171.4,389.969,171.4Zm19.16-7.175h-7.957l-0.32,1.954h7.957Zm7.349-9.414h-2.1L411.363,173h2.1ZM417.293,173h2.1l2.273-13.641h-2.1Zm3.961-15.95a1.422,1.422,0,1,0-1.492-1.42A1.464,1.464,0,0,0,421.254,157.05Zm5.415,7.744a4.153,4.153,0,0,1,4.121-3.73c1.953,0,2.912,1.279,2.557,3.411L431.926,173h2.1l1.457-8.667c0.568-3.482-1.031-5.151-3.766-5.151a4.869,4.869,0,0,0-4.369,2.309h-0.178l0.356-2.132H425.5L423.223,173h2.1Zm16.868,8.49a6.446,6.446,0,0,0,6-3.445l-1.918-.569a4.023,4.023,0,0,1-3.766,2.131c-2.629,0-4.032-1.172-3.525-4.511h9.919l0.142-.888c0.862-5.08-1.874-6.82-4.724-6.82-3.686,0-6.634,2.913-7.318,7.1C437.65,170.478,439.6,173.284,443.537,173.284Zm-2.912-8.206a5.268,5.268,0,0,1,4.724-4.014c2.282,0,3.455,1.706,3.055,4.014h-7.779Zm22.834,8.242a5.171,5.171,0,0,0,4.4-2.167h0.107L467.65,173h2.1l1.492-8.987c0.711-4.334-2.487-4.831-4.227-4.831a6.658,6.658,0,0,0-6,3.2l1.847,0.71a4.671,4.671,0,0,1,3.978-2.06c1.918,0,2.629,1.03,2.345,2.771v0.071c-0.178.994-1.208,0.923-3.73,1.243-2.593.32-5.435,0.888-5.968,4.014C459.054,171.792,460.866,173.32,463.459,173.32Zm0.6-1.883c-1.67,0-2.736-.746-2.487-2.2,0.249-1.6,1.812-2.1,3.481-2.309,0.888-.107,3.3-0.356,3.73-0.782l-0.32,1.918A4.289,4.289,0,0,1,464.063,171.437Zm19.035-4.014a4.329,4.329,0,0,1-4.12,3.73c-1.741,0-2.771-1.279-2.452-3.268l1.421-8.526h-2.1l-1.457,8.668c-0.568,3.481,1,5.151,3.552,5.151a5.185,5.185,0,0,0,4.476-2.487h0.142L482.175,173h2.095l2.274-13.641h-2.1Zm10.155,5.861a5.166,5.166,0,0,0,4.369-2.38h0.249l-0.355,2.1h2.024l3.02-18.188h-2.1l-1.119,6.714h-0.178a3.382,3.382,0,0,0-3.552-2.344c-3.446,0-6.278,2.735-7,7.033C487.907,170.549,489.834,173.284,493.253,173.284Zm0.515-1.883c-2.629,0-3.526-2.308-3.037-5.221,0.471-2.878,2.087-5.116,4.742-5.116,2.567,0,3.65,2.061,3.144,5.116C498.1,169.27,496.29,171.4,493.768,171.4Zm9.888,1.6h2.1l2.273-13.641H505.93Zm3.961-15.95a1.422,1.422,0,1,0-1.492-1.42A1.464,1.464,0,0,0,507.617,157.05Zm7.618,16.234c3.623,0,6.5-2.735,7.175-6.891,0.7-4.334-1.35-7.211-5.115-7.211-3.623,0-6.5,2.735-7.176,6.927C509.427,170.407,511.469,173.284,515.235,173.284Zm0.035-1.883c-2.735,0-3.552-2.344-3.126-5.008,0.453-2.806,2.238-5.329,5.115-5.329,2.736,0,3.553,2.38,3.126,5.045C519.932,168.924,518.147,171.4,515.27,171.4Zm18.822-17.441h-1.918l-9.449,21.775h1.918Zm12.75,5.4H544.5l-5.577,10.87h-0.142l-1.954-10.87h-2.2L537.393,173h2.132ZM548.188,173h2.1l2.274-13.641h-2.1Zm3.96-15.95a1.422,1.422,0,1,0-1.492-1.42A1.464,1.464,0,0,0,552.148,157.05Zm7.121,16.234a5.167,5.167,0,0,0,4.369-2.38h0.249l-0.356,2.1h2.025l3.02-18.188h-2.1l-1.119,6.714h-0.178a3.382,3.382,0,0,0-3.552-2.344c-3.446,0-6.279,2.735-7,7.033C553.922,170.549,555.85,173.284,559.269,173.284Zm0.515-1.883c-2.629,0-3.526-2.308-3.037-5.221,0.47-2.878,2.086-5.116,4.742-5.116,2.566,0,3.65,2.061,3.144,5.116C564.117,169.27,562.306,171.4,559.784,171.4Zm15.572,1.883a6.446,6.446,0,0,0,6-3.445l-1.918-.569a4.023,4.023,0,0,1-3.766,2.131c-2.628,0-4.032-1.172-3.525-4.511h9.919l0.142-.888c0.862-5.08-1.873-6.82-4.724-6.82-3.686,0-6.634,2.913-7.318,7.1C569.468,170.478,571.421,173.284,575.356,173.284Zm-2.913-8.206a5.268,5.268,0,0,1,4.724-4.014c2.282,0,3.455,1.706,3.055,4.014h-7.779Zm17.472,8.206c3.623,0,6.5-2.735,7.176-6.891,0.7-4.334-1.35-7.211-5.116-7.211-3.623,0-6.5,2.735-7.175,6.927C584.107,170.407,586.15,173.284,589.915,173.284Zm0.036-1.883c-2.736,0-3.553-2.344-3.126-5.008,0.452-2.806,2.237-5.329,5.115-5.329,2.735,0,3.552,2.38,3.126,5.045C594.613,168.924,592.828,171.4,589.951,171.4Zm21.413,1.883a5.166,5.166,0,0,0,4.369-2.38h0.249l-0.356,2.1h2.025l3.02-18.188h-2.1l-1.119,6.714h-0.178a3.382,3.382,0,0,0-3.552-2.344c-3.446,0-6.279,2.735-7,7.033C606.018,170.549,607.945,173.284,611.364,173.284Zm0.515-1.883c-2.629,0-3.526-2.308-3.037-5.221,0.47-2.878,2.087-5.116,4.742-5.116,2.566,0,3.65,2.061,3.144,5.116C616.213,169.27,614.4,171.4,611.879,171.4Zm15.536,1.883c3.623,0,6.5-2.735,7.176-6.891,0.7-4.334-1.35-7.211-5.116-7.211-3.623,0-6.5,2.735-7.175,6.927C621.607,170.407,623.65,173.284,627.415,173.284Zm0.036-1.883c-2.736,0-3.553-2.344-3.126-5.008,0.453-2.806,2.238-5.329,5.115-5.329,2.735,0,3.552,2.38,3.126,5.045C632.113,168.924,630.328,171.4,627.451,171.4Zm11.86,1.6h2.06l4.724-10.479h0.213L647.552,173h2.06l6.43-13.641h-2.2l-4.689,10.408h-0.142l-1.137-10.408h-2.237L640.98,169.8h-0.142l-1.208-10.444h-2.2Zm20.667-8.206a4.154,4.154,0,0,1,4.121-3.73c1.954,0,2.913,1.279,2.557,3.411L665.236,173h2.1l1.457-8.667c0.568-3.482-1.03-5.151-3.766-5.151a4.869,4.869,0,0,0-4.369,2.309h-0.177l0.355-2.132h-2.025L656.533,173h2.1Zm16.3-9.982h-2.1L671.163,173h2.1Zm6.463,18.472c3.624,0,6.5-2.735,7.176-6.891,0.7-4.334-1.35-7.211-5.115-7.211-3.624,0-6.5,2.735-7.176,6.927C676.934,170.407,678.976,173.284,682.741,173.284Zm0.036-1.883c-2.735,0-3.552-2.344-3.126-5.008,0.453-2.806,2.238-5.329,5.115-5.329,2.735,0,3.552,2.38,3.126,5.045C687.439,168.924,685.654,171.4,682.777,171.4Zm13.21,1.919a5.171,5.171,0,0,0,4.4-2.167H700.5L700.178,173h2.1l1.492-8.987c0.71-4.334-2.487-4.831-4.227-4.831a6.658,6.658,0,0,0-6,3.2l1.847,0.71a4.671,4.671,0,0,1,3.978-2.06c1.918,0,2.629,1.03,2.345,2.771v0.071c-0.178.994-1.208,0.923-3.73,1.243-2.593.32-5.435,0.888-5.968,4.014C691.582,171.792,693.393,173.32,695.987,173.32Zm0.6-1.883c-1.669,0-2.735-.746-2.486-2.2,0.249-1.6,1.812-2.1,3.481-2.309,0.888-.107,3.3-0.356,3.73-0.782L701,168.062A4.289,4.289,0,0,1,696.59,171.437Zm14.667,1.847a5.166,5.166,0,0,0,4.369-2.38h0.249L715.52,173h2.024l3.02-18.188h-2.1l-1.119,6.714h-0.178a3.382,3.382,0,0,0-3.552-2.344c-3.446,0-6.279,2.735-7,7.033C705.911,170.549,707.838,173.284,711.257,173.284Zm0.515-1.883c-2.629,0-3.526-2.308-3.037-5.221,0.47-2.878,2.087-5.116,4.742-5.116,2.566,0,3.65,2.061,3.144,5.116C716.106,169.27,714.294,171.4,711.772,171.4Zm15.572,1.883a6.446,6.446,0,0,0,6-3.445l-1.918-.569a4.023,4.023,0,0,1-3.766,2.131c-2.628,0-4.031-1.172-3.525-4.511h9.919L734.2,166c0.862-5.08-1.873-6.82-4.724-6.82-3.685,0-6.634,2.913-7.318,7.1C721.456,170.478,723.41,173.284,727.344,173.284Zm-2.913-8.206a5.268,5.268,0,0,1,4.724-4.014c2.283,0,3.455,1.706,3.055,4.014h-7.779ZM736.255,173h2.1l1.421-8.632a3.953,3.953,0,0,1,3.978-3.2,2.462,2.462,0,0,1,1.173.213l0.994-1.74a2.361,2.361,0,0,0-1.634-.5,4.5,4.5,0,0,0-3.943,2.274H740.2l0.355-2.061h-2.024Z"/>
  <path class="cls-3" d="M223.055,40.6l36.161,20.584L223.055,82.439,231.011,94.4l43.337-26.926V54.9l-43.5-26.926Zm97.968,76.216v-13.8H265.391v13.8h55.632Z"/>
  <path class="cls-4" d="M344.32,103.5a12.975,12.975,0,0,1-5.424-3.824,17.885,17.885,0,0,1-3.269-5.911,31.164,31.164,0,0,1-1.46-6.815,40.017,40.017,0,0,1-.07-7.093,64.082,64.082,0,0,1,.974-7.232l2.921-18.081a47.854,47.854,0,0,1,2.712-9.6,26.529,26.529,0,0,1,5.424-8.484,23.518,23.518,0,0,1,8.345-5.7,25.528,25.528,0,0,1,9.666-1.947,20.709,20.709,0,0,1,5.633.765,11.788,11.788,0,0,1,4.728,2.573,14.385,14.385,0,0,1,3.269,4.312,21.361,21.361,0,0,1,1.808,5.146L386.253,1.41h19.471L388.9,103.635h-19.61l1.53-9.458a20.581,20.581,0,0,1-3.755,4.52,24.418,24.418,0,0,1-4.8,3.408,20.667,20.667,0,0,1-5.424,2.016,26.173,26.173,0,0,1-5.633.626A19.058,19.058,0,0,1,344.32,103.5Zm21.836-15.507a9.49,9.49,0,0,0,3.616-2.086,10.662,10.662,0,0,0,2.5-3.407,13.948,13.948,0,0,0,1.182-3.894l3.06-18.08q0.277-1.669.417-3.407A28.276,28.276,0,0,0,377,53.7a15.584,15.584,0,0,0-.487-3.268,9.346,9.346,0,0,0-1.252-2.851,5.5,5.5,0,0,0-2.364-1.947,7.659,7.659,0,0,0-3.2-.7,12.622,12.622,0,0,0-4.659.9,11.3,11.3,0,0,0-4.033,2.712,12.64,12.64,0,0,0-2.643,4.033,17.554,17.554,0,0,0-1.182,4.59l-3.06,18.081a23.192,23.192,0,0,0-.348,4.729,11.38,11.38,0,0,0,.974,4.381,6.567,6.567,0,0,0,2.921,3.129,8.9,8.9,0,0,0,4.381,1.113A13.776,13.776,0,0,0,366.156,87.988Zm33.588-.487h16.689l11.544-69.958H415.46V1.41h34.77L435.905,87.5h12.517v16.134H399.744V87.5ZM468.31,29.922h19.611l-1.53,9.319a31.287,31.287,0,0,1,3.825-4.451,21.413,21.413,0,0,1,4.728-3.477,19.049,19.049,0,0,1,5.425-1.947A29.445,29.445,0,0,1,506,28.809a19.093,19.093,0,0,1,6.885,1.252,13.041,13.041,0,0,1,5.424,3.825,18.154,18.154,0,0,1,3.268,5.841,30.317,30.317,0,0,1,1.461,6.746,41.152,41.152,0,0,1,.069,7.163q-0.28,3.687-.834,7.3l-3.06,18.081a48.3,48.3,0,0,1-2.712,9.457,27.978,27.978,0,0,1-5.355,8.553A22.306,22.306,0,0,1,502.8,102.8a26.069,26.069,0,0,1-9.735,1.947,20.92,20.92,0,0,1-5.563-.765,11.135,11.135,0,0,1-4.729-2.573,14.869,14.869,0,0,1-3.2-4.311,26.622,26.622,0,0,1-1.947-5.146l-6.676,40.194H451.482ZM492.163,87.71A11.256,11.256,0,0,0,496.2,85a12.482,12.482,0,0,0,2.643-4.1,24.835,24.835,0,0,0,1.321-4.52l2.921-18.081a23.24,23.24,0,0,0,.347-4.729,11.453,11.453,0,0,0-.973-4.381,6.61,6.61,0,0,0-2.921-3.129,8.932,8.932,0,0,0-4.381-1.113,13.761,13.761,0,0,0-4.1.626,9.46,9.46,0,0,0-3.616,2.086A9.791,9.791,0,0,0,485,51.062a21.249,21.249,0,0,0-1.252,3.894l-2.92,18.081q-0.28,1.669-.487,3.407a16.193,16.193,0,0,0-.07,3.338,25.184,25.184,0,0,0,.487,3.2A8.979,8.979,0,0,0,481.94,85.9a5.3,5.3,0,0,0,2.365,2.017,7.619,7.619,0,0,0,3.2.7A12.589,12.589,0,0,0,492.163,87.71Z"/>
</svg>
