<svg xmlns="http://www.w3.org/2000/svg" width="892" height="173" viewBox="0 0 892 173">
  <defs>
    <style>
      .cls-1 {
        fill: #666;
      }

      .cls-1, .cls-2, .cls-3, .cls-4 {
        fill-rule: evenodd;
      }

      .cls-2, .cls-4 {
        fill: red;
      }

      .cls-3 {
        fill: #fff;
      }

      .cls-3, .cls-4 {
        stroke: #282828;
        stroke-linejoin: round;
        stroke-width: 1px;
      }
    </style>
  </defs>
  <path class="cls-1" d="M129.231,159.5c-0.071-3.73-2.735-5.932-6.43-5.932-4.618,0-8.49,3.517-9.449,9.2-0.959,5.826,1.883,9.485,6.608,9.485a8.618,8.618,0,0,0,8.17-5.933h-2.2a6.18,6.18,0,0,1-5.9,3.872c-3.233,0-5.364-2.486-4.583-7.14,0.782-4.8,3.872-7.424,7.247-7.424,2.344,0,4.262,1.35,4.369,3.872h2.167Zm6.85,12.788c3.623,0,6.5-2.735,7.176-6.891,0.7-4.334-1.35-7.211-5.115-7.211-3.624,0-6.5,2.735-7.176,6.927C130.273,169.407,132.316,172.284,136.081,172.284Zm0.036-1.883c-2.735,0-3.553-2.344-3.126-5.008,0.453-2.806,2.238-5.329,5.115-5.329,2.735,0,3.552,2.38,3.126,5.045C140.779,167.924,138.994,170.4,136.117,170.4Zm9.231,1.6h2.1l1.421-8.525a3.976,3.976,0,0,1,3.658-3.411,2.093,2.093,0,0,1,2.274,2.594L153.234,172h2.131l1.492-8.881a3.451,3.451,0,0,1,3.517-3.055c1.492,0,2.629.782,2.309,2.807L161.155,172h2.1l1.528-9.129c0.532-3.2-.959-4.689-3.375-4.689a5.192,5.192,0,0,0-4.476,2.309h-0.142a3.075,3.075,0,0,0-3.268-2.309,4.487,4.487,0,0,0-4.05,2.309h-0.177l0.355-2.132h-2.025Zm21.733,0h2.1l1.421-8.525a3.976,3.976,0,0,1,3.658-3.411,2.093,2.093,0,0,1,2.274,2.594L174.967,172H177.1l1.492-8.881a3.451,3.451,0,0,1,3.517-3.055c1.492,0,2.629.782,2.309,2.807L182.888,172h2.1l1.528-9.129c0.533-3.2-.959-4.689-3.375-4.689a5.192,5.192,0,0,0-4.476,2.309h-0.142a3.075,3.075,0,0,0-3.268-2.309,4.486,4.486,0,0,0-4.049,2.309h-0.178l0.355-2.132h-2.025Zm25.712,0.32a5.171,5.171,0,0,0,4.4-2.167H197.3L196.984,172h2.1l1.492-8.987c0.71-4.334-2.487-4.831-4.227-4.831a6.66,6.66,0,0,0-6,3.2l1.848,0.71a4.671,4.671,0,0,1,3.978-2.06c1.918,0,2.629,1.03,2.345,2.771v0.071c-0.178.994-1.208,0.923-3.73,1.243-2.593.32-5.435,0.888-5.968,4.014C188.388,170.792,190.2,172.32,192.793,172.32Zm0.6-1.883c-1.669,0-2.735-.746-2.486-2.2,0.249-1.6,1.811-2.1,3.481-2.309,0.888-.107,3.3-0.356,3.73-0.782l-0.32,1.918A4.289,4.289,0,0,1,193.4,170.437Zm12.962-6.643a4.153,4.153,0,0,1,4.12-3.73c1.954,0,2.913,1.279,2.558,3.411L211.615,172h2.1l1.456-8.667c0.569-3.482-1.03-5.151-3.765-5.151a4.867,4.867,0,0,0-4.369,2.309h-0.178l0.355-2.132h-2.025L202.912,172h2.1Zm16.335,8.49a5.169,5.169,0,0,0,4.37-2.38h0.248l-0.355,2.1h2.025L232,153.812h-2.1l-1.119,6.714h-0.177a3.383,3.383,0,0,0-3.552-2.344c-3.446,0-6.279,2.735-7,7.033C217.347,169.549,219.274,172.284,222.693,172.284Zm0.515-1.883c-2.628,0-3.525-2.308-3.037-5.221,0.471-2.878,2.087-5.116,4.742-5.116,2.567,0,3.65,2.061,3.144,5.116C227.542,168.27,225.73,170.4,223.208,170.4Zm19.16-7.175h-7.957l-0.32,1.954h7.957Zm7.349-9.414h-2.1L244.6,172h2.1ZM250.532,172h2.1l2.274-13.641h-2.1Zm3.961-15.95A1.422,1.422,0,1,0,253,154.63,1.464,1.464,0,0,0,254.493,156.05Zm5.415,7.744a4.154,4.154,0,0,1,4.121-3.73c1.954,0,2.913,1.279,2.558,3.411L265.166,172h2.1l1.456-8.667c0.568-3.482-1.03-5.151-3.765-5.151a4.869,4.869,0,0,0-4.37,2.309h-0.177l0.355-2.132h-2.025L256.463,172h2.1Zm16.869,8.49a6.446,6.446,0,0,0,6-3.445l-1.918-.569A4.023,4.023,0,0,1,277.1,170.4c-2.629,0-4.032-1.172-3.526-4.511h9.92l0.142-.888c0.861-5.08-1.874-6.82-4.725-6.82-3.685,0-6.634,2.913-7.317,7.1C270.889,169.478,272.843,172.284,276.777,172.284Zm-2.913-8.206a5.268,5.268,0,0,1,4.724-4.014c2.283,0,3.455,1.706,3.055,4.014h-7.779Zm32.283-5.719H303.8l-5.578,10.87h-0.142l-1.953-10.87h-2.2L296.7,172h2.131ZM307.492,172h2.1l2.274-13.641h-2.1Zm3.961-15.95a1.422,1.422,0,1,0-1.492-1.42A1.464,1.464,0,0,0,311.453,156.05Zm7.12,16.234a5.168,5.168,0,0,0,4.37-2.38h0.248l-0.355,2.1h2.025l3.019-18.188h-2.1l-1.119,6.714h-0.177a3.383,3.383,0,0,0-3.552-2.344c-3.446,0-6.279,2.735-7,7.033C313.227,169.549,315.154,172.284,318.573,172.284Zm0.515-1.883c-2.628,0-3.525-2.308-3.037-5.221,0.471-2.878,2.087-5.116,4.743-5.116,2.566,0,3.649,2.061,3.143,5.116C323.422,168.27,321.611,170.4,319.088,170.4Zm15.572,1.883a6.446,6.446,0,0,0,6-3.445l-1.919-.569a4.022,4.022,0,0,1-3.765,2.131c-2.629,0-4.032-1.172-3.526-4.511h9.92l0.142-.888c0.862-5.08-1.874-6.82-4.724-6.82-3.686,0-6.634,2.913-7.318,7.1C328.772,169.478,330.726,172.284,334.66,172.284Zm-2.913-8.206a5.27,5.27,0,0,1,4.725-4.014c2.282,0,3.454,1.706,3.055,4.014h-7.78Zm17.473,8.206c3.623,0,6.5-2.735,7.175-6.891,0.7-4.334-1.35-7.211-5.115-7.211-3.623,0-6.5,2.735-7.175,6.927C343.412,169.407,345.454,172.284,349.22,172.284Zm0.035-1.883c-2.735,0-3.552-2.344-3.126-5.008,0.453-2.806,2.238-5.329,5.116-5.329,2.735,0,3.552,2.38,3.126,5.045C353.918,167.924,352.133,170.4,349.255,170.4ZM369.5,172.32a5.173,5.173,0,0,0,4.405-2.167h0.107L373.688,172h2.1l1.492-8.987c0.71-4.334-2.487-4.831-4.228-4.831a6.659,6.659,0,0,0-6,3.2l1.847,0.71a4.674,4.674,0,0,1,3.979-2.06c1.918,0,2.628,1.03,2.344,2.771v0.071c-0.177.994-1.207,0.923-3.73,1.243-2.593.32-5.434,0.888-5.967,4.014C365.091,170.792,366.9,172.32,369.5,172.32Zm0.6-1.883c-1.669,0-2.735-.746-2.487-2.2,0.249-1.6,1.812-2.1,3.482-2.309,0.888-.107,3.3-0.356,3.73-0.782l-0.32,1.918A4.289,4.289,0,0,1,370.1,170.437Zm12.961-6.643a4.154,4.154,0,0,1,4.121-3.73c1.954,0,2.913,1.279,2.558,3.411L388.319,172h2.095l1.457-8.667c0.568-3.482-1.03-5.151-3.766-5.151a4.869,4.869,0,0,0-4.369,2.309h-0.177l0.355-2.132h-2.025L379.616,172h2.1Zm16.336,8.49a5.166,5.166,0,0,0,4.369-2.38h0.249L403.66,172h2.024l3.02-18.188h-2.1l-1.119,6.714h-0.178a3.382,3.382,0,0,0-3.552-2.344c-3.446,0-6.278,2.735-7,7.033C394.051,169.549,395.978,172.284,399.4,172.284Zm0.515-1.883c-2.629,0-3.526-2.308-3.037-5.221,0.47-2.878,2.087-5.116,4.742-5.116,2.567,0,3.65,2.061,3.144,5.116C404.246,168.27,402.434,170.4,399.912,170.4Zm20.9,1.919a5.174,5.174,0,0,0,4.4-2.167h0.106L425,172H427.1l1.492-8.987c0.711-4.334-2.486-4.831-4.227-4.831a6.658,6.658,0,0,0-6,3.2l1.847,0.71a4.671,4.671,0,0,1,3.979-2.06c1.918,0,2.628,1.03,2.344,2.771v0.071c-0.178.994-1.208,0.923-3.73,1.243-2.593.32-5.435,0.888-5.968,4.014C416.405,170.792,418.217,172.32,420.81,172.32Zm0.6-1.883c-1.67,0-2.735-.746-2.487-2.2,0.249-1.6,1.812-2.1,3.481-2.309,0.889-.107,3.3-0.356,3.73-0.782l-0.319,1.918A4.291,4.291,0,0,1,421.414,170.437Zm19.035-4.014a4.329,4.329,0,0,1-4.12,3.73c-1.741,0-2.771-1.279-2.451-3.268l1.421-8.526h-2.1l-1.457,8.668c-0.568,3.481,1,5.151,3.553,5.151a5.188,5.188,0,0,0,4.476-2.487h0.142L439.526,172h2.1l2.273-13.641h-2.1Zm10.155,5.861a5.169,5.169,0,0,0,4.37-2.38h0.248l-0.355,2.1h2.025l3.019-18.188h-2.1l-1.119,6.714h-0.177a3.384,3.384,0,0,0-3.553-2.344c-3.445,0-6.278,2.735-7,7.033C445.258,169.549,447.185,172.284,450.6,172.284Zm0.515-1.883c-2.628,0-3.525-2.308-3.037-5.221,0.471-2.878,2.087-5.116,4.742-5.116,2.567,0,3.65,2.061,3.144,5.116C455.453,168.27,453.641,170.4,451.119,170.4Zm9.889,1.6h2.1l2.274-13.641h-2.1Zm3.96-15.95a1.422,1.422,0,1,0-1.492-1.42A1.464,1.464,0,0,0,464.968,156.05Zm7.618,16.234c3.623,0,6.5-2.735,7.175-6.891,0.7-4.334-1.349-7.211-5.115-7.211-3.623,0-6.5,2.735-7.175,6.927C466.778,169.407,468.821,172.284,472.586,172.284Zm0.035-1.883c-2.735,0-3.552-2.344-3.126-5.008,0.453-2.806,2.238-5.329,5.116-5.329,2.735,0,3.552,2.38,3.126,5.045C477.284,167.924,475.5,170.4,472.621,170.4Zm21.414,1.883a5.167,5.167,0,0,0,4.369-2.38h0.248L498.3,172h2.025l3.019-18.188h-2.1l-1.119,6.714h-0.178a3.382,3.382,0,0,0-3.552-2.344c-3.446,0-6.279,2.735-7,7.033C488.688,169.549,490.616,172.284,494.035,172.284Zm0.515-1.883c-2.629,0-3.526-2.308-3.038-5.221,0.471-2.878,2.087-5.116,4.743-5.116,2.566,0,3.65,2.061,3.143,5.116C498.883,168.27,497.072,170.4,494.55,170.4Zm15.536,1.883c3.623,0,6.5-2.735,7.175-6.891,0.7-4.334-1.349-7.211-5.115-7.211-3.623,0-6.5,2.735-7.175,6.927C504.278,169.407,506.321,172.284,510.086,172.284Zm0.035-1.883c-2.735,0-3.552-2.344-3.126-5.008,0.453-2.806,2.238-5.329,5.116-5.329,2.735,0,3.552,2.38,3.126,5.045C514.784,167.924,513,170.4,510.121,170.4Zm11.86,1.6h2.061l4.724-10.479h0.213L530.223,172h2.06l6.43-13.641h-2.2l-4.689,10.408h-0.142l-1.137-10.408H528.3L523.651,168.8h-0.142L522.3,158.359h-2.2Zm20.668-8.206a4.153,4.153,0,0,1,4.121-3.73c1.954,0,2.913,1.279,2.557,3.411L547.906,172H550l1.457-8.667c0.568-3.482-1.03-5.151-3.766-5.151a4.869,4.869,0,0,0-4.369,2.309h-0.178l0.356-2.132h-2.025L539.2,172h2.1Zm16.3-9.982h-2.1L553.834,172h2.1Zm6.463,18.472c3.624,0,6.5-2.735,7.176-6.891,0.7-4.334-1.35-7.211-5.115-7.211-3.624,0-6.5,2.735-7.176,6.927C559.6,169.407,561.647,172.284,565.412,172.284Zm0.036-1.883c-2.735,0-3.552-2.344-3.126-5.008,0.453-2.806,2.238-5.329,5.115-5.329,2.735,0,3.552,2.38,3.126,5.045C570.11,167.924,568.325,170.4,565.448,170.4Zm13.209,1.919a5.173,5.173,0,0,0,4.4-2.167h0.107L582.849,172h2.1l1.492-8.987c0.71-4.334-2.487-4.831-4.227-4.831a6.66,6.66,0,0,0-6,3.2l1.848,0.71a4.671,4.671,0,0,1,3.978-2.06c1.918,0,2.629,1.03,2.345,2.771v0.071c-0.178.994-1.208,0.923-3.73,1.243-2.593.32-5.435,0.888-5.968,4.014C574.253,170.792,576.064,172.32,578.657,172.32Zm0.6-1.883c-1.669,0-2.735-.746-2.486-2.2,0.248-1.6,1.811-2.1,3.481-2.309,0.888-.107,3.3-0.356,3.73-0.782l-0.32,1.918A4.289,4.289,0,0,1,579.261,170.437Zm14.667,1.847a5.167,5.167,0,0,0,4.369-2.38h0.249L598.19,172h2.025l3.02-18.188h-2.1l-1.119,6.714h-0.178a3.382,3.382,0,0,0-3.552-2.344c-3.446,0-6.279,2.735-7,7.033C588.582,169.549,590.509,172.284,593.928,172.284Zm0.515-1.883c-2.629,0-3.526-2.308-3.037-5.221,0.47-2.878,2.087-5.116,4.742-5.116,2.566,0,3.65,2.061,3.144,5.116C598.776,168.27,596.965,170.4,594.443,170.4Zm15.572,1.883a6.446,6.446,0,0,0,6-3.445l-1.918-.569a4.023,4.023,0,0,1-3.766,2.131c-2.628,0-4.032-1.172-3.525-4.511h9.919L616.87,165c0.862-5.08-1.873-6.82-4.724-6.82-3.686,0-6.634,2.913-7.318,7.1C604.127,169.478,606.08,172.284,610.015,172.284Zm-2.913-8.206a5.268,5.268,0,0,1,4.724-4.014c2.283,0,3.455,1.706,3.055,4.014H607.1ZM618.926,172h2.1l1.421-8.632a3.953,3.953,0,0,1,3.978-3.2,2.454,2.454,0,0,1,1.172.213l1-1.74a2.361,2.361,0,0,0-1.634-.5,4.5,4.5,0,0,0-3.943,2.274h-0.142l0.355-2.061H621.2Zm24.967-13.641H640.82l0.231-1.385a2.14,2.14,0,0,1,2.309-2.06,2.994,2.994,0,0,1,1.137.213l0.888-1.812a4.324,4.324,0,0,0-1.918-.355,4.271,4.271,0,0,0-4.4,3.517l-0.311,1.882H636.54l-0.285,1.776h2.194L636.469,172h2.095l1.963-11.865h3.082Zm5.752,13.925c3.623,0,6.5-2.735,7.175-6.891,0.7-4.334-1.349-7.211-5.115-7.211-3.623,0-6.5,2.735-7.175,6.927C643.837,169.407,645.88,172.284,649.645,172.284Zm0.035-1.883c-2.735,0-3.552-2.344-3.125-5.008,0.452-2.806,2.237-5.329,5.115-5.329,2.735,0,3.552,2.38,3.126,5.045C654.343,167.924,652.558,170.4,649.68,170.4Zm9.232,1.6h2.095l1.421-8.632a3.954,3.954,0,0,1,3.979-3.2,2.457,2.457,0,0,1,1.172.213l1-1.74a2.361,2.361,0,0,0-1.634-.5A4.5,4.5,0,0,0,663,160.42h-0.142l0.355-2.061h-2.025Zm24.824-13.641h-2.921l0.541-3.268h-2.1l-0.542,3.268h-2.052l-0.284,1.776h2.043l-1.4,8.526a2.879,2.879,0,0,0,3.09,3.517,5.021,5.021,0,0,0,1.634-.249l-0.142-1.883a4.014,4.014,0,0,1-.923.107c-0.924,0-1.777-.284-1.492-2.06l1.323-7.958h2.939Zm4.615,5.435a4.228,4.228,0,0,1,4.227-3.73c1.954,0,2.949,1.244,2.593,3.411L693.75,172h2.1l1.457-8.667c0.568-3.517-1.03-5.151-3.8-5.151a4.741,4.741,0,0,0-4.4,2.309h-0.178l1.1-6.679h-2.1L684.905,172H687Zm16.975,8.49c3.624,0,6.5-2.735,7.176-6.891,0.7-4.334-1.35-7.211-5.115-7.211-3.624,0-6.5,2.735-7.176,6.927C699.518,169.407,701.561,172.284,705.326,172.284Zm0.036-1.883c-2.735,0-3.552-2.344-3.126-5.008,0.453-2.806,2.238-5.329,5.115-5.329,2.735,0,3.552,2.38,3.126,5.045C710.024,167.924,708.239,170.4,705.362,170.4Zm18.751-3.978a4.33,4.33,0,0,1-4.121,3.73c-1.74,0-2.77-1.279-2.451-3.268l1.421-8.526h-2.1l-1.456,8.668c-0.568,3.481,1,5.151,3.552,5.151a5.188,5.188,0,0,0,4.476-2.487h0.142L723.189,172h2.1l2.274-13.641h-2.1Zm16.442-5.009c-0.355-1.953-1.6-3.232-4.3-3.232-2.877,0-5.293,1.634-5.684,3.943-0.319,1.882.6,3.126,3.02,3.73l2.167,0.532c1.349,0.32,1.882.96,1.705,1.919-0.178,1.172-1.6,2.131-3.553,2.131-1.705,0-2.664-.746-2.77-2.2l-2.1.5c0.106,2.309,1.812,3.552,4.618,3.552,3.161,0,5.612-1.74,6-4.085,0.32-1.918-.675-3.09-3.019-3.694l-1.954-.5c-1.527-.39-2.167-0.959-1.989-1.989,0.177-1.172,1.563-2.025,3.232-2.025a2.335,2.335,0,0,1,2.629,1.954Zm5.608,10.906a5.173,5.173,0,0,0,4.4-2.167h0.107L750.355,172h2.1l1.492-8.987c0.71-4.334-2.487-4.831-4.227-4.831a6.66,6.66,0,0,0-6,3.2l1.848,0.71a4.671,4.671,0,0,1,3.978-2.06c1.918,0,2.629,1.03,2.345,2.771v0.071c-0.178.994-1.208,0.923-3.73,1.243-2.593.32-5.435,0.888-5.968,4.014C741.759,170.792,743.57,172.32,746.163,172.32Zm0.6-1.883c-1.669,0-2.735-.746-2.486-2.2,0.248-1.6,1.811-2.1,3.481-2.309,0.888-.107,3.3-0.356,3.73-0.782l-0.32,1.918A4.289,4.289,0,0,1,746.767,170.437Zm12.962-6.643a4.152,4.152,0,0,1,4.12-3.73c1.954,0,2.913,1.279,2.558,3.411L764.986,172h2.1l1.456-8.667c0.569-3.482-1.03-5.151-3.765-5.151a4.866,4.866,0,0,0-4.369,2.309h-0.178l0.355-2.132h-2.025L756.283,172h2.1Zm16.335,8.49a5.166,5.166,0,0,0,4.369-2.38h0.249l-0.355,2.1h2.025l3.019-18.188h-2.1l-1.119,6.714h-0.177a3.384,3.384,0,0,0-3.553-2.344c-3.445,0-6.278,2.735-7,7.033C770.718,169.549,772.645,172.284,776.064,172.284Zm0.515-1.883c-2.628,0-3.525-2.308-3.037-5.221,0.471-2.878,2.087-5.116,4.742-5.116,2.567,0,3.65,2.061,3.144,5.116C780.913,168.27,779.1,170.4,776.579,170.4Zm21.327-8.987c-0.356-1.953-1.6-3.232-4.3-3.232-2.877,0-5.292,1.634-5.683,3.943-0.32,1.882.6,3.126,3.019,3.73l2.167,0.532c1.35,0.32,1.883.96,1.705,1.919-0.177,1.172-1.6,2.131-3.552,2.131-1.705,0-2.664-.746-2.771-2.2l-2.1.5c0.107,2.309,1.812,3.552,4.618,3.552,3.162,0,5.613-1.74,6-4.085,0.319-1.918-.675-3.09-3.02-3.694l-1.954-.5c-1.527-.39-2.166-0.959-1.989-1.989,0.178-1.172,1.563-2.025,3.233-2.025a2.334,2.334,0,0,1,2.628,1.954Zm14.309,10.87c3.623,0,6.5-2.735,7.175-6.891,0.7-4.334-1.35-7.211-5.115-7.211-3.623,0-6.5,2.735-7.176,6.927C806.407,169.407,808.449,172.284,812.215,172.284Zm0.035-1.883c-2.735,0-3.552-2.344-3.126-5.008,0.453-2.806,2.238-5.329,5.116-5.329,2.735,0,3.552,2.38,3.125,5.045C816.913,167.924,815.128,170.4,812.25,170.4Zm17.579-12.042h-3.073l0.231-1.385a2.14,2.14,0,0,1,2.309-2.06,2.994,2.994,0,0,1,1.137.213l0.888-1.812a4.324,4.324,0,0,0-1.918-.355,4.271,4.271,0,0,0-4.4,3.517l-0.311,1.882h-2.211l-0.284,1.776h2.193L822.405,172h2.1l1.962-11.865h3.082Zm19.142,3.055c-0.356-1.953-1.6-3.232-4.3-3.232-2.877,0-5.292,1.634-5.683,3.943-0.32,1.882.6,3.126,3.019,3.73l2.167,0.532c1.35,0.32,1.883.96,1.705,1.919-0.177,1.172-1.6,2.131-3.552,2.131-1.7,0-2.664-.746-2.771-2.2l-2.1.5c0.107,2.309,1.812,3.552,4.618,3.552,3.162,0,5.613-1.74,6-4.085,0.319-1.918-.675-3.09-3.02-3.694l-1.954-.5c-1.527-.39-2.166-0.959-1.989-1.989,0.178-1.172,1.563-2.025,3.233-2.025a2.334,2.334,0,0,1,2.628,1.954ZM850.6,172h2.1l2.274-13.641h-2.1Zm3.961-15.95a1.422,1.422,0,1,0-1.492-1.42A1.464,1.464,0,0,0,854.561,156.05Zm10.175,2.309h-2.921l0.541-3.268h-2.1l-0.542,3.268h-2.052l-0.284,1.776h2.043l-1.4,8.526a2.879,2.879,0,0,0,3.09,3.517,5.021,5.021,0,0,0,1.634-.249l-0.142-1.883a4.014,4.014,0,0,1-.923.107c-0.924,0-1.777-.284-1.492-2.06l1.323-7.958h2.939Zm6.427,13.925a6.446,6.446,0,0,0,6-3.445l-1.919-.569a4.022,4.022,0,0,1-3.765,2.131c-2.629,0-4.032-1.172-3.526-4.511h9.92l0.142-.888c0.861-5.08-1.874-6.82-4.724-6.82-3.686,0-6.634,2.913-7.318,7.1C865.275,169.478,867.229,172.284,871.163,172.284Zm-2.913-8.206a5.27,5.27,0,0,1,4.725-4.014c2.282,0,3.454,1.706,3.055,4.014h-7.78Zm23.263-2.664c-0.355-1.953-1.6-3.232-4.3-3.232-2.878,0-5.293,1.634-5.684,3.943-0.32,1.882.6,3.126,3.02,3.73l2.166,0.532c1.35,0.32,1.883.96,1.705,1.919-0.177,1.172-1.6,2.131-3.552,2.131-1.705,0-2.664-.746-2.771-2.2l-2.1.5c0.106,2.309,1.811,3.552,4.618,3.552,3.161,0,5.612-1.74,6-4.085,0.32-1.918-.675-3.09-3.02-3.694l-1.953-.5c-1.528-.39-2.167-0.959-1.99-1.989,0.178-1.172,1.563-2.025,3.233-2.025a2.335,2.335,0,0,1,2.629,1.954Z"/>
  <path class="cls-2" d="M0.426,153.812L7.1,166.281V172h4.9v-5.719l6.678-12.469H13.179L9.627,161.2H9.485l-3.552-7.389H0.426Zm20.49,3.979h5.471V172h4.866V157.791h5.47v-3.979H20.916v3.979Zm25.82,5.115H38.211V166.6h8.525v-3.695ZM56.572,172c5.541,0,9.058-3.41,9.058-9.094s-3.517-9.094-9.129-9.094H49.574V172h7Zm-2.06-4.192V158h1.741c2.842,0,4.4,1.1,4.4,4.9s-1.563,4.9-4.263,4.9H54.512ZM67.9,172H80.189v-3.979H72.835V153.812H67.9V172Zm14.275,0h4.938v-5.4h2.735c4.147,0,6.927-2.443,6.927-6.359,0-3.872-2.709-6.43-6.749-6.43h-7.85V172Zm4.938-9.236v-5.009h1.741c1.732,0,2.771.924,2.771,2.487a2.452,2.452,0,0,1-2.771,2.522H87.111Z"/>
  <path class="cls-3" d="M297.055,39.6l36.161,20.584L297.055,81.439,305.011,93.4l43.337-26.926V53.9l-43.5-26.926Zm97.968,76.216v-13.8H339.391v13.8h55.632Z"/>
  <path class="cls-4" d="M418.32,102.5a12.975,12.975,0,0,1-5.424-3.824,17.885,17.885,0,0,1-3.269-5.911,31.164,31.164,0,0,1-1.46-6.815,40.017,40.017,0,0,1-.07-7.093,64.082,64.082,0,0,1,.974-7.232l2.921-18.081a47.854,47.854,0,0,1,2.712-9.6,26.529,26.529,0,0,1,5.424-8.484,23.518,23.518,0,0,1,8.345-5.7,25.528,25.528,0,0,1,9.666-1.947,20.709,20.709,0,0,1,5.633.765,11.788,11.788,0,0,1,4.728,2.573,14.385,14.385,0,0,1,3.269,4.312,21.361,21.361,0,0,1,1.808,5.146L460.253,0.41h19.471L462.9,102.635h-19.61l1.53-9.458a20.581,20.581,0,0,1-3.755,4.52,24.4,24.4,0,0,1-4.8,3.408,20.667,20.667,0,0,1-5.424,2.016,26.173,26.173,0,0,1-5.633.626A19.058,19.058,0,0,1,418.32,102.5Zm21.836-15.507a9.49,9.49,0,0,0,3.616-2.086,10.662,10.662,0,0,0,2.5-3.407,13.948,13.948,0,0,0,1.182-3.894l3.06-18.08q0.277-1.669.417-3.407A28.276,28.276,0,0,0,451,52.7a15.584,15.584,0,0,0-.487-3.268,9.346,9.346,0,0,0-1.252-2.851,5.5,5.5,0,0,0-2.364-1.947,7.659,7.659,0,0,0-3.2-.7,12.622,12.622,0,0,0-4.659.9,11.3,11.3,0,0,0-4.033,2.712,12.64,12.64,0,0,0-2.643,4.033,17.554,17.554,0,0,0-1.182,4.59l-3.06,18.081a23.192,23.192,0,0,0-.348,4.729,11.38,11.38,0,0,0,.974,4.381,6.567,6.567,0,0,0,2.921,3.129,8.9,8.9,0,0,0,4.381,1.113A13.776,13.776,0,0,0,440.156,86.988Zm33.588-.487h16.689l11.544-69.958H489.46V0.41h34.77L509.905,86.5h12.517v16.134H473.744V86.5ZM542.31,28.922h19.611l-1.53,9.319a31.287,31.287,0,0,1,3.825-4.451,21.413,21.413,0,0,1,4.728-3.477,19.049,19.049,0,0,1,5.425-1.947A29.445,29.445,0,0,1,580,27.809a19.093,19.093,0,0,1,6.885,1.252,13.041,13.041,0,0,1,5.424,3.825,18.154,18.154,0,0,1,3.268,5.841,30.317,30.317,0,0,1,1.461,6.746,41.152,41.152,0,0,1,.069,7.163q-0.28,3.687-.834,7.3l-3.06,18.081a48.3,48.3,0,0,1-2.712,9.457,27.978,27.978,0,0,1-5.355,8.553A22.306,22.306,0,0,1,576.8,101.8a26.069,26.069,0,0,1-9.735,1.947,20.92,20.92,0,0,1-5.563-.765,11.135,11.135,0,0,1-4.729-2.573,14.864,14.864,0,0,1-3.2-4.311,26.622,26.622,0,0,1-1.947-5.146l-6.676,40.194H525.482ZM566.163,86.71A11.256,11.256,0,0,0,570.2,84a12.482,12.482,0,0,0,2.643-4.1,24.835,24.835,0,0,0,1.321-4.52l2.921-18.081a23.24,23.24,0,0,0,.347-4.729,11.453,11.453,0,0,0-.973-4.381,6.61,6.61,0,0,0-2.921-3.129,8.932,8.932,0,0,0-4.381-1.113,13.761,13.761,0,0,0-4.1.626,9.46,9.46,0,0,0-3.616,2.086A9.791,9.791,0,0,0,559,50.062a21.249,21.249,0,0,0-1.252,3.894l-2.92,18.081q-0.281,1.669-.487,3.407a16.193,16.193,0,0,0-.07,3.338,25.184,25.184,0,0,0,.487,3.2A8.979,8.979,0,0,0,555.94,84.9a5.3,5.3,0,0,0,2.365,2.017,7.619,7.619,0,0,0,3.2.7A12.589,12.589,0,0,0,566.163,86.71Z"/>
</svg>
