<svg width="148" height="26" viewBox="0 0 148 26" fill="none" xmlns="../../www.w3.org/2000/svg.html">
<path d="M41.7038 7.36283C43.2029 7.36283 44.4075 6.16814 44.4075 4.68142C44.4075 3.19469 43.2029 2 41.7038 2C40.2046 2 39 3.19469 39 4.68142C39 6.16814 40.2046 7.36283 41.7038 7.36283ZM44.113 21.115V8.29204H39.2945V21.115H44.113Z" fill="white"/>
<path d="M60.3697 21.115V12.0088C60.3697 9.77876 59.058 7.97345 56.0597 7.97345C53.7843 7.97345 52.3655 8.90266 51.6159 9.75221V8.29204H46.7974V21.115H51.6159V13.2035C52.0175 12.7522 52.5796 12.1947 53.6772 12.1947C54.8283 12.1947 55.5511 12.6991 55.5511 14.0265V21.115H60.3697Z" fill="white"/>
<path d="M68.4922 21.4336C70.1252 21.4336 71.2495 21.0354 71.7582 20.5841L70.9015 16.9735C70.7944 17.0796 70.3661 17.2124 69.9378 17.2124C69.2953 17.2124 68.867 16.6814 68.867 16.0177V12.4336H71.4905V8.29204H68.867V4.78761H64.0484V8.29204H61.9069V12.4336H64.0484V17.3982C64.0484 20.0796 65.6279 21.4336 68.4922 21.4336Z" fill="white"/>
<path d="M79.5973 21.4336C81.5248 21.4336 83.827 20.9292 85.1119 19.8407L83.131 16.8938C82.4885 17.4513 80.8823 17.7965 80.1595 17.7965C78.5801 17.7965 77.6431 17 77.3754 16.177H86.156V15.1947C86.156 10.6814 83.238 7.97345 79.4367 7.97345C75.2606 7.97345 72.3962 10.9735 72.3962 14.6903C72.3962 18.9115 75.5551 21.4336 79.5973 21.4336ZM81.5783 13.1504H77.3219C77.4825 12.5664 77.9644 11.6106 79.4367 11.6106C80.9894 11.6106 81.4445 12.5929 81.5783 13.1504Z" fill="white"/>
<path d="M92.6334 21.115V13.2566C93.1688 12.6195 94.4805 12.354 95.4978 12.354C95.9529 12.354 96.3544 12.4071 96.5954 12.4867V7.92035C95.123 7.92035 93.4365 8.76991 92.6334 9.69912V8.29204H87.8149V21.115H92.6334Z" fill="white"/>
<path d="M106.705 21.4336C109.917 21.4336 112.38 19.0973 112.38 14.6903C112.38 10.3097 109.917 7.97345 106.705 7.97345C105.366 7.97345 104.108 8.42478 103.064 9.64602V8.29204H98.2457V26H103.064V19.7611C104.135 20.9823 105.366 21.4336 106.705 21.4336ZM105.045 17.2124C104.43 17.2124 103.493 16.8673 103.064 16.3363V13.0708C103.519 12.5133 104.43 12.1947 105.045 12.1947C106.33 12.1947 107.455 13.0973 107.455 14.6903C107.455 16.3097 106.33 17.2124 105.045 17.2124Z" fill="white"/>
<path d="M126.454 21.115V13.3628C126.454 9.0885 123.322 7.97345 120.109 7.97345C118.155 7.97345 115.746 8.53097 114.006 9.9115L115.639 12.8584C116.656 12.0885 118.021 11.6106 119.226 11.6106C120.805 11.6106 121.635 12.3009 121.635 13.2035V14.531C120.939 13.6549 119.413 13.1239 117.727 13.1239C115.799 13.1239 113.283 14.0265 113.283 17.2124C113.283 20.1327 115.799 21.4336 117.727 21.4336C119.333 21.4336 120.912 20.7965 121.635 19.8938V21.115H126.454ZM119.735 18.3274C118.931 18.3274 118.048 18.0885 118.048 17.292C118.048 16.4956 118.931 16.2301 119.735 16.2301C120.484 16.2301 121.314 16.469 121.635 16.9204V17.6372C121.314 18.0885 120.484 18.3274 119.735 18.3274Z" fill="white"/>
<path d="M133.938 21.115V3.40708H129.12V21.115H133.938Z" fill="white"/>
<path d="M141.87 21.4336C145.698 21.4336 148 19.5752 148 17.0265C148 11.6903 140.665 13.0177 140.665 11.9558C140.665 11.6637 141.174 11.3982 141.87 11.3982C143.369 11.3982 144.868 12.0619 145.671 12.7257L147.438 9.61947C145.939 8.63717 144.011 7.97345 141.843 7.97345C138.095 7.97345 136.061 10.0442 136.061 12.354C136.061 17.6637 143.396 16.0973 143.396 17.3186C143.396 17.6372 143.101 17.8761 142.111 17.8761C140.665 17.8761 138.47 17.0531 137.453 16.2566L135.525 19.469C136.917 20.6106 139.487 21.4336 141.87 21.4336Z" fill="white"/>
<path fill-rule="evenodd" clip-rule="evenodd" d="M6.58674 12.5C6.58674 5.59644 12.1814 0 19.0828 0C25.9842 0 31.5788 5.59644 31.5788 12.5C31.5788 15.3282 30.6399 17.937 29.0568 20.0316L30.5199 24.7881C28.6835 24.2633 27.5781 23.8197 26.55 23.407L26.55 23.407C26.2768 23.2974 26.0091 23.19 25.7346 23.0838C23.8084 24.2977 21.5276 25 19.0828 25C12.1814 25 6.58674 19.4036 6.58674 12.5ZM24.8005 15.082C25.4821 14.9352 26.096 14.803 25.9823 14.3535C25.7359 13.3813 26.445 12.6801 27.0731 12.0588C27.6732 11.4654 28.1995 10.9449 27.7486 10.3308C27.5952 10.1215 27.576 9.59951 27.5526 8.95948C27.5438 8.72013 27.5344 8.46426 27.5172 8.20206C28.1772 9.49306 28.5524 10.9534 28.5524 12.5003C28.5524 17.7234 24.3043 21.9728 19.0828 21.9728C17.9175 21.9728 16.8012 21.76 15.7693 21.3732C16.1881 21 16.6199 20.1792 16.7055 19.9149C16.7747 19.7015 16.6425 19.2574 16.5474 18.9378C16.5004 18.7798 16.4624 18.6522 16.4623 18.598C16.462 18.4339 15.4789 17.286 15.233 17.122C15.0706 17.0136 15.1227 16.5832 15.1768 16.1363C15.2047 15.9066 15.233 15.6726 15.233 15.4757C15.233 15.0736 14.6024 14.7984 14.0518 14.5582C13.8082 14.4519 13.5803 14.3525 13.4295 14.2519C13.1854 14.089 13.022 14.3101 12.8492 14.544C12.6739 14.7813 12.4888 15.0317 12.1998 14.9079C11.7415 14.7114 11.7015 14.1486 11.6622 13.5958C11.6523 13.4565 11.6425 13.3179 11.626 13.1858C11.5667 12.7108 10.3062 12.5646 9.61398 12.52L9.61379 12.5101L9.61364 12.5045L9.6136 12.5003C9.6136 8.34801 12.2998 4.81331 16.0242 3.53774L16.0182 3.54375C15.9847 3.57717 15.9511 3.61081 15.9248 3.64828C15.8233 3.79268 15.6942 3.84487 15.5706 3.8948C15.3071 4.00129 15.069 4.09751 15.1781 5.05614C15.211 5.34425 15.2282 5.60079 15.2434 5.82832C15.3026 6.71281 15.3325 7.15911 16.1415 7.31905C16.7601 7.44142 17.1411 7.39617 17.5015 7.35336C17.7333 7.32582 17.9565 7.2993 18.229 7.31905C18.7002 7.35307 18.8336 8.16692 18.9207 8.69773C18.9621 8.9504 18.993 9.13894 19.0449 9.14869C19.0449 9.14869 19.9587 11.6658 22.6374 12.3845C23.2063 12.5373 22.0484 13.7064 21.2457 14.058C21.0742 14.1332 20.905 14.1946 20.7441 14.2531C20.152 14.4681 19.671 14.6429 19.5869 15.3152C19.5133 15.8999 20.066 15.8494 20.5255 15.8074C20.7377 15.788 20.93 15.7704 21.0316 15.8181C21.353 15.9689 22.739 16.4963 23.3063 15.7114C23.5694 15.347 24.2103 15.209 24.8005 15.082ZM1.33252 7.47362C2.67868 5.15658 4.93931 3.43695 7.62006 2.80922C5.21952 5.3777 3.76402 8.74531 3.76402 12.4324C3.76402 16.1195 5.21961 19.4872 7.62026 22.0557C6.57538 21.8111 5.59431 21.4006 4.70634 20.8534C4.68371 20.8607 4.66053 20.8684 4.6368 20.8764L0.470478 22.3155L1.8032 18.1944C1.8032 18.1701 1.8024 18.1458 1.8008 18.1215C0.666794 16.5129 0.000744941 14.5505 0.000744941 12.4325L0.000746151 12.4275C0.000248713 12.3874 0 12.3472 0 12.307C0 10.4933 0.444171 8.88217 1.33252 7.47362Z" fill="white"/>
</svg> 