<svg xmlns="http://www.w3.org/2000/svg" width="512" height="512" viewBox="0 0 512 512"><mask id="a"><circle cx="256" cy="256" r="256" fill="#fff"/></mask><g mask="url(#a)"><path fill="#d80027" d="m0 345 255.7-31L512 345v167H0z"/><path fill="#ffda44" d="m0 167 258-40.7L512 167v178H0z"/><path fill="#6da544" d="M0 0h512v167H0z"/><circle cx="256" cy="256" r="122.4" fill="#0052b4"/><g fill="#ffda44"><path d="m256 161.2 22 68h71.7l-58 42 22.3 68.3-58-42.3-58 42.2 22.2-68.1-58-42H234z"/><path d="m344.1 273-70-22.9 43.2-59.6-18-13L256 237l-43.3-59.7-18 13.1 43.3 59.7-70.1 22.7 6.9 21.2 70-22.8V345h22.3v-73.7l70.1 22.8z"/></g></g></svg>