<svg xmlns="http://www.w3.org/2000/svg" width="512" height="512" viewBox="0 0 512 512"><mask id="a"><circle cx="256" cy="256" r="256" fill="#fff"/></mask><g mask="url(#a)"><path fill="#0052b4" d="M0 0h512v512H0z"/><path fill="#ffda44" d="m256 100.2 8.3 25.5H291l-21.7 15.7 8.3 25.6-21.7-15.8-21.7 15.8 8.3-25.6-21.7-15.7h26.8zm-110.2 45.6 24 12.2 18.9-19-4.2 26.5 23.9 12.2-26.5 4.2-4.2 26.5-12.2-24-26.5 4.3 19-19zM100.2 256l25.5-8.3V221l15.7 21.7 25.6-8.3-15.8 21.7 15.8 21.7-25.6-8.3-15.7 21.7v-26.8zm45.6 110.2 12.2-24-19-18.9 26.5 4.2 12.2-23.9 4.2 26.5 26.5 4.2-24 12.2 4.3 26.5-19-19zM256 411.8l-8.3-25.5H221l21.7-15.7-8.3-25.6 21.7 15.8 21.7-15.8-8.3 25.6 21.7 15.7h-26.8zm110.2-45.6-24-12.2-18.9 19 4.2-26.5-23.9-12.2 26.5-4.2 4.2-26.5 12.2 24 26.5-4.3-19 19zM411.8 256l-25.5 8.3V291l-15.7-21.7-25.6 8.3 15.8-21.7-15.8-21.7 25.6 8.3 15.7-21.7v26.8zm-45.6-110.2-12.2 24 19 18.9-26.5-4.2-12.2 23.9-4.2-26.5-26.5-4.2 24-12.2-4.3-26.5 19 19z"/></g></svg>