<svg width="32" height="33" viewBox="0 0 32 33" fill="none" xmlns="../../www.w3.org/2000/svg.html">
<path d="M0 16C0 7.16344 7.16344 0 16 0V0C24.8366 0 32 7.16344 32 16V16C32 24.8366 24.8366 32 16 32V32C7.16344 32 0 24.8366 0 16V16Z" fill="url(#paint0_linear_26515_381550)"/>
<g filter="url(#filter0_d_26515_381550)">
<path fill-rule="evenodd" clip-rule="evenodd" d="M18.0413 6.36945C12.9902 6.36945 8.89551 10.4287 8.89551 15.4361C8.89551 20.4435 12.9902 24.5028 18.0413 24.5028C19.8306 24.5028 21.4999 23.9934 22.9097 23.1129C23.1106 23.1899 23.3066 23.2678 23.5065 23.3473C24.259 23.6466 25.068 23.9684 26.412 24.3491L25.3412 20.899C26.4998 19.3798 27.1871 17.4875 27.1871 15.4361C27.1871 10.4287 23.0924 6.36945 18.0413 6.36945ZM23.091 16.7805C23.1742 17.1066 22.7249 17.2025 22.226 17.3089C21.7941 17.4011 21.325 17.5012 21.1324 17.7655C20.7172 18.3348 19.7028 17.9522 19.4676 17.8428C19.3933 17.8082 19.2525 17.821 19.0972 17.8351C18.7609 17.8655 18.3564 17.9022 18.4102 17.4781C18.4718 16.9904 18.8238 16.8637 19.2572 16.7077C19.375 16.6653 19.4988 16.6207 19.6243 16.5662C20.2118 16.3111 21.0592 15.4632 20.6429 15.3524C18.6824 14.831 18.0135 13.0053 18.0135 13.0053C17.9756 12.9982 17.953 12.8615 17.9226 12.6782C17.8589 12.2932 17.7613 11.7029 17.4164 11.6782C17.217 11.6639 17.0536 11.6831 16.8839 11.7031C16.6202 11.7341 16.3413 11.767 15.8886 11.6782C15.2965 11.5622 15.2746 11.2385 15.2313 10.5969C15.2201 10.4319 15.2076 10.2458 15.1835 10.0368C15.1036 9.34151 15.2779 9.27172 15.4707 9.19448C15.5612 9.15826 15.6557 9.12041 15.73 9.01566C15.7492 8.98849 15.7738 8.96409 15.7983 8.93985L15.8027 8.93549C13.0769 9.8607 11.1108 12.4245 11.1108 15.4363L11.1109 15.4394L11.111 15.4435C11.1111 15.4458 11.1111 15.4483 11.1111 15.4506C11.6177 15.483 12.5403 15.589 12.5837 15.9336C12.5958 16.0293 12.603 16.1299 12.6102 16.2309C12.639 16.6319 12.6682 17.0401 13.0037 17.1826C13.2152 17.2725 13.3506 17.0908 13.479 16.9187C13.6054 16.749 13.725 16.5887 13.9037 16.7068C14.0141 16.7798 14.1809 16.8519 14.3591 16.929C14.7622 17.1032 15.2237 17.3028 15.2237 17.5945C15.2237 17.7373 15.2029 17.907 15.1826 18.0737C15.1429 18.3978 15.1048 18.71 15.2237 18.7886C15.4036 18.9075 16.1232 19.7402 16.1234 19.8592C16.1234 19.8985 16.1512 19.9911 16.1856 20.1057C16.2553 20.3375 16.352 20.6596 16.3014 20.8144C16.2387 21.0061 15.9227 21.6015 15.6162 21.8722C16.3714 22.1527 17.1884 22.3071 18.0413 22.3071C21.8629 22.3071 24.972 19.2248 24.972 15.4363C24.972 14.3143 24.6975 13.2551 24.2143 12.3187C24.227 12.5089 24.2338 12.6944 24.2403 12.8681C24.2574 13.3323 24.2714 13.7109 24.3838 13.8627C24.7138 14.3082 24.3286 14.6857 23.8894 15.1161C23.4296 15.5667 22.9107 16.0753 23.091 16.7805Z" fill="white"/>
<path fill-rule="evenodd" clip-rule="evenodd" d="M9.64769 8.41052C7.68824 8.8667 6.03593 10.1129 5.05145 11.7916C4.40126 12.8133 4.07617 13.9819 4.07617 15.2975L4.07632 15.343L4.07617 15.3894C4.07617 16.9261 4.56391 18.3499 5.39429 19.5168C5.39538 19.5338 5.39592 19.5508 5.39592 19.5678L4.42051 22.557L7.46982 21.5132C7.48671 21.5075 7.50322 21.5021 7.51935 21.4969C8.1701 21.8944 8.88917 22.1925 9.65507 22.37C7.89607 20.5065 6.8294 18.0625 6.8294 15.3864C6.8294 12.714 7.89309 10.273 9.64769 8.41052Z" fill="white"/>
</g>
<defs>
<filter id="filter0_d_26515_381550" x="0.0761719" y="6.36945" width="31.1108" height="26.1333" filterUnits="userSpaceOnUse" color-interpolation-filters="sRGB">
<feFlood flood-opacity="0" result="BackgroundImageFix"/>
<feColorMatrix in="SourceAlpha" type="matrix" values="0 0 0 0 0 0 0 0 0 0 0 0 0 0 0 0 0 0 127 0" result="hardAlpha"/>
<feOffset dy="4"/>
<feGaussianBlur stdDeviation="2"/>
<feColorMatrix type="matrix" values="0 0 0 0 0 0 0 0 0 0 0 0 0 0 0 0 0 0 0.05 0"/>
<feBlend mode="normal" in2="BackgroundImageFix" result="effect1_dropShadow_26515_381550"/>
<feBlend mode="normal" in="SourceGraphic" in2="effect1_dropShadow_26515_381550" result="shape"/>
</filter>
<linearGradient id="paint0_linear_26515_381550" x1="16" y1="0" x2="16" y2="32" gradientUnits="userSpaceOnUse">
<stop stop-color="#19B5FE"/>
<stop offset="1" stop-color="#1990FE"/>
<stop offset="1" stop-color="#1990FE"/>
</linearGradient>
</defs>
</svg>
