<svg width="201" height="36" viewBox="0 0 201 36" fill="none" xmlns="../../www.w3.org/2000/svg.html">
<path d="M56.3835 9.66604C58.4231 9.66604 60.062 8.0196 60.062 5.97071C60.062 3.92182 58.4231 2.27539 56.3835 2.27539C54.344 2.27539 52.7051 3.92182 52.7051 5.97071C52.7051 8.0196 54.344 9.66604 56.3835 9.66604ZM59.6614 28.6183V10.9466H53.1057V28.6183H59.6614Z" fill="#19B5FE"/>
<path d="M81.7785 28.6183V16.0688C81.7785 12.9955 79.9939 10.5075 75.9148 10.5075C72.8191 10.5075 70.8888 11.7881 69.869 12.9589V10.9466H63.3134V28.6183H69.869V17.7153C70.4153 17.0933 71.1802 16.3249 72.6734 16.3249C74.2395 16.3249 75.2228 17.0201 75.2228 18.8495V28.6183H81.7785Z" fill="#19B5FE"/>
<path d="M92.8292 29.0573C95.0509 29.0573 96.5805 28.5085 97.2725 27.8865L96.1071 22.9107C95.9614 23.057 95.3787 23.2399 94.7959 23.2399C93.9219 23.2399 93.3391 22.5082 93.3391 21.5935V16.6542H96.9083V10.9466H93.3391V6.11706H86.7835V10.9466H83.8698V16.6542H86.7835V23.4961C86.7835 27.1914 88.9323 29.0573 92.8292 29.0573Z" fill="#19B5FE"/>
<path d="M107.938 29.0573C110.56 29.0573 113.692 28.3622 115.44 26.8621L112.745 22.8009C111.871 23.5692 109.686 24.0449 108.703 24.0449C106.554 24.0449 105.279 22.9472 104.915 21.813H116.861V20.4593C116.861 14.2395 112.891 10.5075 107.719 10.5075C102.038 10.5075 98.1406 14.6419 98.1406 19.7641C98.1406 25.5815 102.438 29.0573 107.938 29.0573ZM110.633 17.6421H104.842C105.061 16.8372 105.716 15.52 107.719 15.52C109.832 15.52 110.451 16.8737 110.633 17.6421Z" fill="#19B5FE"/>
<path d="M125.673 28.6183V17.7884C126.402 16.9103 128.186 16.5445 129.57 16.5445C130.189 16.5445 130.736 16.6176 131.064 16.7274V10.4344C129.06 10.4344 126.766 11.6052 125.673 12.8857V10.9466H119.118V28.6183H125.673Z" fill="#19B5FE"/>
<path d="M144.818 29.0573C149.188 29.0573 152.539 25.8376 152.539 19.7641C152.539 13.7272 149.188 10.5075 144.818 10.5075C142.997 10.5075 141.285 11.1295 139.864 12.8125V10.9466H133.309V35.3504H139.864V26.7523C141.321 28.4353 142.997 29.0573 144.818 29.0573ZM142.56 23.2399C141.722 23.2399 140.447 22.7643 139.864 22.0326V17.5323C140.484 16.764 141.722 16.3249 142.56 16.3249C144.308 16.3249 145.837 17.5689 145.837 19.7641C145.837 21.996 144.308 23.2399 142.56 23.2399Z" fill="#19B5FE"/>
<path d="M171.686 28.6183V17.9348C171.686 12.0442 167.425 10.5075 163.054 10.5075C160.396 10.5075 157.118 11.2759 154.75 13.1784L156.972 17.2396C158.356 16.1786 160.213 15.52 161.852 15.52C164.001 15.52 165.13 16.4713 165.13 17.7153V19.5446C164.183 18.3372 162.107 17.6055 159.813 17.6055C157.191 17.6055 153.767 18.8495 153.767 23.2399C153.767 27.2646 157.191 29.0573 159.813 29.0573C161.998 29.0573 164.147 28.1792 165.13 26.9353V28.6183H171.686ZM162.544 24.7766C161.452 24.7766 160.25 24.4473 160.25 23.3497C160.25 22.2521 161.452 21.8862 162.544 21.8862C163.564 21.8862 164.693 22.2155 165.13 22.8375V23.8253C164.693 24.4473 163.564 24.7766 162.544 24.7766Z" fill="#19B5FE"/>
<path d="M181.869 28.6183V4.21452H175.313V28.6183H181.869Z" fill="#19B5FE"/>
<path d="M192.659 29.0573C197.867 29.0573 200.999 26.4962 200.999 22.9838C200.999 15.6298 191.02 17.4591 191.02 15.9956C191.02 15.5932 191.712 15.2273 192.659 15.2273C194.699 15.2273 196.738 16.142 197.831 17.0567L200.235 12.776C198.195 11.4222 195.573 10.5075 192.623 10.5075C187.524 10.5075 184.756 13.3614 184.756 16.5445C184.756 23.8619 194.735 21.7033 194.735 23.3863C194.735 23.8253 194.335 24.1546 192.987 24.1546C191.02 24.1546 188.034 23.0204 186.65 21.9228L184.028 26.3499C185.921 27.9231 189.418 29.0573 192.659 29.0573Z" fill="#19B5FE"/>
<path fill-rule="evenodd" clip-rule="evenodd" d="M25.8094 0.0703125C16.4751 0.0703125 8.9082 7.7212 8.9082 17.159C8.9082 26.5969 16.4751 34.2478 25.8094 34.2478C29.116 34.2478 32.2009 33.2877 34.8061 31.6281C35.1774 31.7733 35.5395 31.9202 35.9089 32.07C37.2996 32.6342 38.7945 33.2406 41.2783 33.9581L39.2994 27.4555C41.4406 24.592 42.7106 21.0255 42.7106 17.159C42.7106 7.7212 35.1437 0.0703125 25.8094 0.0703125ZM35.1411 19.693C35.2949 20.3075 34.4646 20.4882 33.5427 20.6888C32.7445 20.8626 31.8776 21.0512 31.5218 21.5494C30.7545 22.6224 28.8799 21.9014 28.4452 21.6952C28.3078 21.63 28.0477 21.654 27.7607 21.6806C27.1392 21.738 26.3916 21.8071 26.4912 21.0077C26.6049 20.0885 27.2555 19.8497 28.0564 19.5556C28.274 19.4757 28.5028 19.3918 28.7349 19.289C29.8205 18.8083 31.3865 17.2101 30.617 17.0012C26.9941 16.0186 25.7581 12.5775 25.7581 12.5775C25.688 12.5641 25.6462 12.3064 25.5902 11.961C25.4724 11.2353 25.2919 10.1227 24.6546 10.0762C24.2861 10.0492 23.9841 10.0854 23.6706 10.1231C23.1832 10.1816 22.668 10.2435 21.8313 10.0762C20.7371 9.85752 20.6967 9.24739 20.6166 8.0382C20.596 7.72714 20.5727 7.37643 20.5283 6.98255C20.3807 5.67202 20.7027 5.54047 21.0591 5.39489C21.2262 5.32663 21.4009 5.25529 21.5382 5.05787C21.5737 5.00665 21.6192 4.96066 21.6645 4.91497L21.6726 4.90676C16.6353 6.65059 13.0021 11.4829 13.0021 17.1594L13.0022 17.1652L13.0024 17.1729C13.0025 17.1773 13.0026 17.1819 13.0026 17.1864C13.9388 17.2474 15.6437 17.4473 15.7239 18.0967C15.7462 18.2771 15.7595 18.4667 15.7729 18.6571C15.826 19.4129 15.8801 20.1822 16.5001 20.4508C16.8909 20.6202 17.1412 20.2778 17.3783 19.9534C17.612 19.6336 17.833 19.3314 18.1632 19.554C18.3672 19.6915 18.6754 19.8275 19.0049 19.9728C19.7496 20.3012 20.6025 20.6774 20.6025 21.2271C20.6025 21.4963 20.5642 21.8162 20.5265 22.1303C20.4533 22.7412 20.3828 23.3296 20.6025 23.4777C20.9351 23.702 22.2648 25.2713 22.2651 25.4956C22.2653 25.5698 22.3166 25.7442 22.3802 25.9601C22.5088 26.3971 22.6876 27.0043 22.5941 27.296C22.4783 27.6573 21.8942 28.7794 21.3279 29.2896C22.7236 29.8183 24.2333 30.1093 25.8094 30.1093C32.8717 30.1093 38.6172 24.3 38.6172 17.1594C38.6172 15.0447 38.1099 13.0483 37.2171 11.2833C37.2404 11.6418 37.2531 11.9916 37.265 12.3188C37.2967 13.1938 37.3226 13.9074 37.5302 14.1935C38.14 15.0331 37.4281 15.7446 36.6165 16.5559C35.7669 17.4052 34.8079 18.3638 35.1411 19.693Z" fill="url(#paint0_linear_29629_315824)"/>
<path d="M10.3057 3.91138C7.05905 7.4227 5.08984 12.0262 5.08984 17.0667C5.08985 22.1064 7.0589 26.7088 10.3047 30.22C8.89265 29.8853 7.5664 29.3257 6.36621 28.5784C6.33546 28.5884 6.30372 28.5986 6.27148 28.6096L0.636719 30.5774L2.43848 24.9436C2.43846 24.9099 2.4368 24.8757 2.43457 24.842C0.901491 22.6432 9.68977e-05 19.9614 0 17.0667C5.86848e-06 17.0324 0.000724035 16.9973 0.000976562 16.9631C0.000852592 16.9405 5.27488e-09 16.9174 0 16.8948C6.78026e-05 14.4273 0.595154 12.2337 1.78516 10.3147C3.60395 7.1332 6.66931 4.77201 10.3057 3.91138Z" fill="url(#paint1_linear_29629_315824)"/>
<defs>
<linearGradient id="paint0_linear_29629_315824" x1="15.7102" y1="2.67446" x2="40.8063" y2="34.1749" gradientUnits="userSpaceOnUse">
<stop offset="0.485577" stop-color="#19B5FE"/>
<stop offset="0.988094" stop-color="#1C9AD5"/>
</linearGradient>
<linearGradient id="paint1_linear_29629_315824" x1="5.15283" y1="3.91138" x2="5.15283" y2="30.5774" gradientUnits="userSpaceOnUse">
<stop offset="0.485577" stop-color="#FFB234"/>
<stop offset="1" stop-color="#E89918"/>
</linearGradient>
</defs>
</svg>
