<svg width="45" height="36" viewBox="0 0 45 36" fill="none" xmlns="../../www.w3.org/2000/svg.html">
<path fill-rule="evenodd" clip-rule="evenodd" d="M27.1933 0C17.3587 0 9.38623 8.05887 9.38623 18C9.38623 27.9411 17.3587 36 27.1933 36C30.6772 36 33.9274 34.9887 36.6723 33.2406C37.0635 33.3936 37.4449 33.5483 37.8341 33.7061C39.2993 34.3003 40.8744 34.9391 43.4913 35.6949L41.4064 28.8455C43.6623 25.8293 45.0004 22.0726 45.0004 18C45.0004 8.05887 37.0279 0 27.1933 0ZM37.0252 20.6691C37.1872 21.3164 36.3124 21.5067 35.3411 21.718C34.5001 21.901 33.5868 22.0997 33.2119 22.6245C32.4035 23.7547 30.4283 22.9953 29.9704 22.778C29.8257 22.7093 29.5516 22.7347 29.2491 22.7626C28.5944 22.8231 27.8067 22.8959 27.9116 22.0539C28.0315 21.0857 28.7169 20.8341 29.5607 20.5244C29.79 20.4402 30.031 20.3518 30.2756 20.2435C31.4194 19.7372 33.0694 18.0537 32.2586 17.8337C28.4415 16.7988 27.1393 13.1741 27.1393 13.1741C27.0654 13.1601 27.0213 12.8886 26.9623 12.5247C26.8383 11.7604 26.6481 10.5884 25.9767 10.5394C25.5884 10.511 25.2702 10.5492 24.9399 10.5888C24.4264 10.6505 23.8835 10.7157 23.002 10.5394C21.8491 10.3091 21.8065 9.66645 21.7222 8.39278C21.7004 8.06513 21.676 7.69572 21.6291 7.28083C21.4736 5.90042 21.8129 5.76186 22.1884 5.60852C22.3644 5.53662 22.5485 5.46147 22.6932 5.25352C22.7306 5.19957 22.7785 5.15113 22.8262 5.103L22.8348 5.09435C17.5275 6.93117 13.6996 12.0211 13.6996 18.0004L13.6996 18.0065L13.6998 18.0146C13.7 18.0192 13.7001 18.0241 13.7001 18.0288C14.6865 18.0931 16.4827 18.3036 16.5672 18.9876C16.5907 19.1777 16.6048 19.3774 16.6189 19.5779C16.6748 20.374 16.7318 21.1844 17.385 21.4673C17.7968 21.6457 18.0605 21.285 18.3103 20.9433C18.5566 20.6065 18.7894 20.2882 19.1373 20.5227C19.3522 20.6675 19.677 20.8107 20.024 20.9638C20.8087 21.3098 21.7073 21.7059 21.7073 22.285C21.7073 22.5685 21.6669 22.9055 21.6273 23.2363C21.5501 23.8798 21.4759 24.4996 21.7073 24.6556C22.0577 24.8918 23.4587 26.5449 23.459 26.7811C23.4592 26.8592 23.5133 27.0429 23.5803 27.2704C23.7158 27.7307 23.9042 28.3702 23.8057 28.6775C23.6837 29.0581 23.0683 30.24 22.4716 30.7774C23.9421 31.3344 25.5327 31.6409 27.1933 31.6409C34.6341 31.6409 40.6876 25.5218 40.6876 18.0004C40.6876 15.7729 40.153 13.67 39.2124 11.811C39.237 12.1885 39.2504 12.557 39.2629 12.9016C39.2963 13.8233 39.3236 14.5749 39.5423 14.8763C40.1848 15.7607 39.4348 16.5102 38.5797 17.3647C37.6845 18.2593 36.6742 19.269 37.0252 20.6691Z" fill="url(#paint0_linear_29629_315844)"/>
<path d="M10.8594 4.0459C7.4385 7.74448 5.36334 12.593 5.36328 17.9023C5.36328 23.2112 7.43817 28.0593 10.8584 31.7578C9.37043 31.4054 7.97278 30.8165 6.70801 30.0293C6.67539 30.0399 6.64164 30.0508 6.60742 30.0625L0.670898 32.1348L2.56934 26.2002C2.56933 26.1651 2.56772 26.1298 2.56543 26.0947C0.949459 23.7783 0 20.9523 0 17.9023C1.46828e-06 17.8675 0.000728393 17.8326 0.000976562 17.7979C0.000841011 17.7727 0 17.7469 0 17.7217C8.35594e-05 15.134 0.622446 12.8333 1.86523 10.8184C3.7798 7.45284 7.01701 4.95459 10.8594 4.0459Z" fill="url(#paint1_linear_29629_315844)"/>
<defs>
<linearGradient id="paint0_linear_29629_315844" x1="16.5528" y1="2.74301" x2="42.9856" y2="35.9299" gradientUnits="userSpaceOnUse">
<stop offset="0.485577" stop-color="#19B5FE"/>
<stop offset="0.988094" stop-color="#1C9AD5"/>
</linearGradient>
<linearGradient id="paint1_linear_29629_315844" x1="5.42969" y1="4.0459" x2="5.42969" y2="32.1348" gradientUnits="userSpaceOnUse">
<stop offset="0.485577" stop-color="#FFB234"/>
<stop offset="1" stop-color="#E89918"/>
</linearGradient>
</defs>
</svg>
